<?xml version="1.0" standalone="no"?>
<!DOCTYPE svg PUBLIC "-//W3C//DTD SVG 20010904//EN"
 "http://www.w3.org/TR/2001/REC-SVG-20010904/DTD/svg10.dtd">
<svg version="1.0" xmlns="http://www.w3.org/2000/svg"
 width="300.000000pt" height="300.000000pt" viewBox="0 0 300.000000 300.000000"
 preserveAspectRatio="xMidYMid meet">
<metadata>
Created by potrace 1.10, written by Peter Selinger 2001-2011
</metadata>
<g transform="translate(0.000000,300.000000) scale(0.100000,-0.100000)"
fill="#000000" stroke="none">
<path d="M2530 2596 c0 -3 11 -38 24 -78 63 -187 52 -344 -35 -522 -16 -32
-28 -60 -26 -62 7 -7 141 183 166 236 19 42 26 75 29 137 4 72 1 89 -22 140
-15 31 -35 66 -44 76 -23 25 -92 80 -92 73z m115 -215 c11 -33 14 -62 9 -87
-6 -31 -8 -34 -14 -19 -8 23 -21 155 -15 155 2 0 11 -22 20 -49z"/>
<path d="M2810 2459 c0 -4 -7 -46 -15 -94 -40 -227 -150 -390 -382 -563 -34
-25 -61 -48 -59 -49 4 -5 199 81 276 122 104 55 200 151 229 228 24 67 27 140
7 217 -13 49 -55 154 -56 139z m31 -211 c3 -98 -8 -133 -60 -205 -33 -46 -122
-117 -161 -128 -22 -6 -20 -2 16 36 23 24 58 69 77 99 35 56 87 163 87 180 0
16 23 60 32 60 4 0 8 -19 9 -42z"/>
<path d="M1296 2207 c-30 -9 -36 -14 -25 -22 10 -8 26 -5 59 12 47 25 31 29
-34 10z"/>
<path d="M1553 2190 c-42 -18 -53 -33 -34 -44 5 -3 15 2 22 11 8 9 32 24 54
34 25 12 33 19 20 19 -11 0 -39 -9 -62 -20z"/>
<path d="M1216 2010 c-44 -49 -46 -58 -6 -29 16 12 26 27 23 32 -3 6 -1 7 5 3
7 -4 20 -2 29 3 17 10 16 10 -2 11 -17 0 -17 2 -5 10 8 5 10 10 4 10 -7 0 -28
-18 -48 -40z"/>
<path d="M2936 1987 c-26 -69 -112 -157 -193 -200 -95 -49 -178 -75 -323 -97
-146 -24 -242 -50 -322 -91 -55 -28 -133 -87 -125 -96 2 -2 31 13 63 32 100
60 134 67 396 75 173 6 253 13 295 25 72 21 122 46 150 77 57 62 102 208 86
283 l-9 39 -18 -47z m-52 -197 c-44 -82 -135 -125 -274 -132 -30 -2 -57 1 -60
5 -3 4 35 21 85 38 94 32 177 77 235 129 44 39 49 25 14 -40z"/>
<path d="M2075 1941 c3 -5 0 -11 -7 -14 -7 -2 -5 -3 5 -2 9 2 17 0 17 -4 0 -4
15 -15 33 -25 l32 -19 -34 37 c-32 33 -61 50 -46 27z"/>
<path d="M677 1514 c-16 -9 -36 -13 -45 -9 -9 4 -144 8 -300 8 l-282 2 0 -22
c0 -30 91 -86 125 -77 l25 6 0 -88 c0 -108 16 -140 89 -182 l50 -28 -49 -49
c-65 -64 -66 -91 -8 -123 l41 -22 43 47 c24 27 54 63 66 80 13 18 26 33 31 33
13 0 7 -37 -8 -50 -8 -7 -15 -16 -15 -20 0 -13 101 -70 126 -70 l25 0 -1 233
-2 232 25 3 c18 2 31 -5 46 -27 22 -30 111 -81 143 -81 13 0 18 -8 18 -25 0
-23 -4 -25 -46 -25 -58 0 -84 -14 -84 -45 0 -32 61 -100 113 -126 36 -19 40
-19 64 -4 13 9 34 32 45 51 19 33 22 34 84 34 l64 0 0 -57 c0 -39 -5 -62 -17
-75 -9 -10 -14 -19 -12 -21 40 -30 111 -67 127 -67 22 0 22 1 22 236 0 211 2
235 16 230 9 -3 38 -6 65 -6 l49 0 0 -179 c0 -146 -3 -181 -15 -191 -8 -7 -15
-16 -15 -20 0 -14 99 -70 124 -70 l27 0 -2 233 -1 232 61 -3 c59 -4 61 -3 61
21 0 19 -11 31 -44 51 l-45 26 -263 1 c-231 1 -263 -1 -266 -15 -4 -18 103
-91 118 -81 6 4 10 -25 10 -75 l0 -81 -62 3 -62 3 -1 68 c-2 57 -6 75 -31 110
-52 75 -158 108 -227 71z m88 -25 c4 -5 0 -18 -8 -27 -9 -9 -18 -31 -20 -47
-5 -36 -18 -35 -60 6 -26 24 -38 29 -62 24 -58 -11 -60 -17 -63 -233 -2 -108
-7 -201 -12 -206 -14 -14 -51 24 -45 44 3 10 -3 28 -13 41 -19 22 -20 22 -46
6 -14 -10 -45 -38 -67 -62 -44 -48 -79 -59 -79 -26 0 11 3 21 8 23 17 7 62 78
62 97 0 13 6 21 16 21 25 0 73 39 100 81 20 32 24 51 24 111 -1 65 -3 75 -24
90 -33 24 -127 26 -160 4 -31 -20 -35 -36 -38 -146 l-3 -85 -18 27 c-12 18
-21 56 -26 108 -7 84 -18 102 -68 116 -13 3 -23 10 -23 15 0 12 457 12 479 -1
13 -6 33 -4 67 10 57 22 70 24 79 9z m689 -24 c4 -10 -3 -19 -19 -25 -13 -5
-29 -18 -34 -29 -7 -12 -11 -97 -11 -215 0 -158 -3 -196 -13 -196 -16 0 -50
34 -42 42 3 2 5 85 6 184 l0 179 -26 23 c-34 29 -112 31 -146 3 -24 -19 -24
-23 -27 -223 -2 -111 -6 -205 -8 -208 -3 -2 -12 0 -22 6 -12 8 -16 27 -17 82
-1 98 -20 118 -108 115 -59 -2 -64 -3 -97 -42 -20 -23 -45 -41 -55 -41 -11 0
-37 14 -58 31 -44 36 -47 70 -7 76 67 9 92 45 64 92 -17 28 -17 31 -1 49 9 10
17 29 17 41 0 14 5 21 13 19 20 -7 37 -50 37 -99 0 -32 7 -55 21 -73 17 -22
28 -26 74 -26 43 0 57 5 76 24 19 20 22 32 20 87 -3 69 -18 104 -51 114 -54
17 8 25 200 25 177 0 209 -2 214 -15z m-638 -29 c9 -37 1 -61 -21 -61 -11 0
-21 8 -23 18 -6 30 7 67 23 67 8 0 17 -11 21 -24z m-346 -87 c0 -57 -4 -71
-30 -107 -16 -23 -39 -46 -50 -52 -26 -14 -57 -5 -64 18 -4 14 -10 186 -7 202
1 3 35 5 76 5 l75 1 0 -67z"/>
<path d="M2340 1436 c0 -42 2 -76 4 -76 2 0 16 18 31 40 29 41 69 60 131 60
17 0 37 6 43 14 10 12 -2 15 -76 19 -48 2 -98 8 -110 12 -23 7 -23 6 -23 -69z"/>
<path d="M2780 1500 c-8 -5 -47 -10 -86 -10 -56 0 -73 -3 -78 -16 -11 -28 -6
-90 7 -109 12 -16 13 -10 9 40 l-5 58 59 -7 c54 -6 63 -11 102 -54 l42 -46 0
30 c0 58 -13 124 -24 124 -6 0 -18 -5 -26 -10z"/>
<path d="M1560 1490 c0 -3 53 -130 117 -282 109 -256 120 -278 141 -275 21 2
37 35 138 276 63 151 114 279 114 284 0 4 -8 7 -17 5 -12 -2 -45 -68 -105
-212 -48 -115 -88 -215 -88 -223 0 -25 -18 -13 -29 20 -6 17 -47 117 -90 221
l-79 188 -51 2 c-28 0 -51 -1 -51 -4z m96 -79 c4 -14 11 -32 16 -38 6 -7 8
-20 4 -28 -3 -9 0 -15 8 -15 7 0 13 -6 13 -12 0 -7 14 -42 31 -78 16 -36 35
-82 41 -102 7 -20 23 -54 37 -74 15 -21 23 -43 19 -53 -6 -14 -8 -14 -21 3 -7
11 -21 40 -30 65 -18 52 -27 75 -78 182 -20 41 -36 83 -36 92 0 9 -4 17 -8 17
-7 0 -32 57 -32 73 0 18 31 -9 36 -32z"/>
<path d="M1927 1493 c-3 -5 -26 -58 -52 -120 -30 -73 -44 -119 -40 -133 7 -21
25 -28 25 -10 0 6 23 64 50 130 28 66 50 124 50 130 0 12 -27 14 -33 3z"/>
<path d="M2140 1208 l0 -288 65 0 65 0 0 288 0 287 -65 0 -65 0 0 -287z m83
238 c12 -13 12 -27 -4 -108 -10 -51 -22 -106 -28 -123 -8 -27 -10 -24 -12 30
-4 112 2 199 14 207 15 10 13 10 30 -6z m25 -308 l-3 -181 -25 -2 c-37 -3 -52
5 -47 26 3 11 1 19 -3 19 -5 0 -2 26 5 58 7 31 23 103 35 160 13 56 27 102 32
102 5 0 7 -82 6 -182z"/>
<path d="M2568 1463 c-36 -47 -36 -93 -1 -169 23 -51 25 -62 15 -98 -15 -56
-6 -58 18 -5 26 57 25 118 -1 180 -21 47 -21 52 -6 89 19 49 10 50 -25 3z"/>
<path d="M2506 1317 c-9 -31 -2 -49 39 -106 24 -33 25 -33 25 -9 0 14 -11 41
-24 61 -14 20 -26 46 -28 59 -4 22 -5 22 -12 -5z"/>
<path d="M2640 1233 c0 -17 -7 -36 -16 -44 -25 -21 -44 -66 -43 -101 1 -21 3
-26 6 -13 3 11 21 37 41 57 27 29 36 46 36 73 0 19 -5 40 -12 47 -9 9 -12 5
-12 -19z"/>
<path d="M2505 1170 c11 -12 20 -38 21 -59 1 -21 10 -50 19 -65 20 -30 41 -36
25 -7 -5 11 -10 38 -10 61 0 30 -6 47 -25 65 -29 30 -56 34 -30 5z"/>
<path d="M1964 1098 c3 -13 6 -29 6 -37 0 -8 3 -11 7 -8 3 4 13 1 21 -6 10 -8
7 3 -7 31 -23 46 -37 55 -27 20z"/>
<path d="M2616 1091 c-15 -16 -16 -29 -10 -77 5 -44 9 -53 16 -39 6 9 8 34 5
55 -2 20 0 45 5 54 14 25 4 29 -16 7z"/>
<path d="M2530 1014 c0 -9 -16 -32 -35 -51 -19 -19 -35 -37 -35 -39 0 -2 56
-4 125 -4 69 0 125 2 125 4 0 3 -14 18 -31 35 l-30 31 -26 -30 c-30 -37 -42
-38 -35 -5 5 26 -9 50 -40 66 -14 8 -18 6 -18 -7z"/>
<path d="M825 976 c-28 -18 -57 -42 -65 -52 -12 -14 -7 -13 17 5 29 19 32 20
26 4 -3 -10 -4 -16 -2 -13 2 3 22 24 44 48 21 23 37 42 34 42 -2 0 -27 -15
-54 -34z"/>
<path d="M1462 898 c-11 -12 -39 -24 -62 -27 -43 -6 -55 -24 -19 -29 31 -5 76
16 94 45 22 32 15 38 -13 11z"/>
<path d="M1610 905 c0 -25 60 -66 93 -63 48 5 46 28 -3 28 -30 0 -47 6 -65 25
-16 15 -25 19 -25 10z"/>
<path d="M1256 872 l-38 -29 -36 19 c-63 32 -138 16 -180 -37 -27 -34 -20 -46
11 -18 63 58 124 59 198 3 70 -53 116 -67 168 -52 44 14 86 44 103 75 8 15 -1
11 -30 -15 -51 -46 -98 -56 -156 -34 -24 9 -51 25 -60 35 -15 17 -14 20 24 45
22 14 40 28 40 31 0 9 -6 6 -44 -23z"/>
<path d="M1834 863 l38 -27 -31 -28 c-60 -54 -154 -46 -210 17 -37 43 -41 35
-6 -11 31 -40 101 -69 148 -60 19 3 54 20 79 36 l45 30 59 -30 c103 -51 219
-73 364 -68 116 5 136 8 270 53 192 62 282 69 395 30 18 -6 18 -5 -3 14 -12
11 -48 25 -79 31 -77 16 -164 2 -338 -56 -124 -41 -153 -47 -251 -52 -65 -2
-140 1 -180 7 -75 13 -224 67 -224 81 0 13 66 23 102 16 18 -3 45 -18 60 -33
31 -30 46 -26 26 6 -16 27 -85 61 -122 61 -15 0 -44 -9 -64 -19 l-37 -19 -30
24 c-17 13 -34 24 -40 24 -5 0 7 -12 29 -27z"/>
<path d="M168 847 c-44 -13 -83 -35 -75 -43 2 -2 25 3 51 12 79 27 184 15 356
-41 136 -45 154 -48 276 -52 143 -6 233 10 350 62 76 34 64 41 -15 9 -157 -64
-359 -71 -521 -19 -256 83 -335 96 -422 72z"/>
<path d="M1578 818 c-11 -27 11 -87 37 -104 39 -25 51 -6 15 25 -19 16 -34 40
-39 61 -5 25 -9 30 -13 18z"/>
<path d="M1500 796 c0 -15 -12 -34 -30 -49 -42 -36 -41 -59 1 -37 34 19 67
110 39 110 -5 0 -10 -11 -10 -24z"/>
<path d="M752 641 c-8 -5 3 -21 30 -47 41 -39 42 -35 3 23 -13 18 -27 28 -33
24z"/>
<path d="M1131 481 c-7 -5 -9 -11 -5 -13 5 -3 32 -18 59 -33 l50 -27 -44 41
c-25 22 -45 41 -45 41 -1 0 -7 -4 -15 -9z"/>
</g>
</svg>
