<?xml version="1.0" encoding="UTF-8"?>
<svg version="1.1" xmlns="http://www.w3.org/2000/svg" width="500" height="500">
<path d="M0 0 C-1.48228902 2.96457804 -3.7164164 3.42745611 -6.6875 4.8125 C-14.94585584 8.87318445 -19.4814604 12.94260416 -24 21 C-22.97519531 20.72285156 -21.95039063 20.44570312 -20.89453125 20.16015625 C-19.53387669 19.79418709 -18.17319834 19.42830635 -16.8125 19.0625 C-16.13896484 18.88009766 -15.46542969 18.69769531 -14.77148438 18.50976562 C8.1731149 12.35389753 32.87281792 15.21748389 53.7578125 26.48828125 C61.37722411 31.03604972 67.67567825 36.85328186 74 43 C74.51723633 43.49677246 75.03447266 43.99354492 75.56738281 44.50537109 C85.2910592 53.86205907 85.2910592 53.86205907 87 58 C83.68798029 56.74711689 80.74098921 55.27894221 77.6875 53.5 C68.29009996 48.78727401 57.33673518 47.78211458 47.33203125 50.98046875 C44.73692303 52.11501355 42.3937915 53.49059328 40 55 C41.09957031 55.61746094 42.19914062 56.23492187 43.33203125 56.87109375 C61.35052105 67.12595048 73.55827663 78.19060599 83 97 C83.61746094 96.81026611 84.23492187 96.62053223 84.87109375 96.42504883 C101.54843909 91.35299089 118.47709432 88.05954312 135.65625 85.23120117 C148.30428274 83.12066874 160.73701699 80.41976423 172.5625 75.3125 C173.35841553 74.9707373 174.15433105 74.62897461 174.97436523 74.27685547 C195.52299447 65.17117838 208.41586343 51.36629021 218 31 C221.36134431 34.36134431 221.18920584 38.72465931 221.3125 43.3125 C221.17458679 55.77066026 217.24219532 67.31781799 211 78 C210.62230469 78.67546875 210.24460937 79.3509375 209.85546875 80.046875 C202.94896538 91.0777567 189.60308634 95.16395682 177.73828125 98.38671875 C170.55054503 99.99652558 163.58621297 100.17505835 156.2421875 100.24609375 C153.89973652 100.27908033 151.5572887 100.31229103 149.21484375 100.34570312 C145.56692036 100.39265852 141.91900492 100.43702007 138.27099609 100.47680664 C120.70807465 100.67728565 103.38660427 101.4098574 86 104 C86.144375 104.56847656 86.28875 105.13695312 86.4375 105.72265625 C86.623125 106.49480469 86.80875 107.26695312 87 108.0625 C87.185625 108.81660156 87.37125 109.57070312 87.5625 110.34765625 C88 113 88 113 88 120 C93.61 120 99.22 120 105 120 C105 151.35 105 182.7 105 215 C97.41 215 89.82 215 82 215 C81.98582031 212.0609375 81.97164063 209.121875 81.95703125 206.09375 C81.92636227 203.22742464 81.88728613 200.36132755 81.84741211 197.49511719 C81.82430529 195.51277824 81.80985366 193.5303178 81.80444336 191.54785156 C81.79510013 188.68738738 81.75399319 185.82881482 81.70703125 182.96875 C81.71293022 181.65263733 81.71293022 181.65263733 81.71894836 180.30993652 C81.58808015 174.71182299 80.43645811 171.4268724 77.22895813 166.85305786 C75.42717527 164.13627865 74.63000106 161.32435585 73.76171875 158.19921875 C73.41689453 156.97525391 73.07207031 155.75128906 72.71679688 154.49023438 C72.37712891 153.23533203 72.03746094 151.98042969 71.6875 150.6875 C71.32594746 149.40008749 70.96332442 148.11297512 70.59960938 146.82617188 C68 137.47252976 68 137.47252976 68 134 C67.34 134 66.68 134 66 134 C65.45085937 135.77117187 65.45085937 135.77117187 64.890625 137.578125 C63.47607547 141.82843031 61.80489383 145.92727282 60.046875 150.046875 C59.78096558 150.67057983 59.51505615 151.29428467 59.24108887 151.93688965 C58.13082871 154.53709215 57.01811915 157.13596469 55.88671875 159.72705078 C55.05309156 161.64125294 54.23629992 163.56193948 53.421875 165.484375 C52.93299805 166.61584961 52.44412109 167.74732422 51.94042969 168.91308594 C50.93630759 172.20906719 50.93529084 173.76748575 52 177 C53.07389194 178.93749172 54.23066773 180.82990103 55.4375 182.6875 C58.39598205 187.31046747 61.12783195 192.0032148 63.73071289 196.83569336 C69.66807147 207.83676572 75.68264388 216.70013567 85.80078125 224.30859375 C87.70111023 225.77012563 89.35675508 227.26103208 91 229 C80.32276595 228.79175607 69.39993007 226.55647744 61.51196289 218.78369141 C56.12842876 212.4326337 54.86582438 203.74231259 53.375 195.8125 C51.69242776 186.77473066 51.69242776 186.77473066 49 178 C43.1755686 190.1223938 38.12177289 202.56944199 33 215 C30.36 215 27.72 215 25 215 C-0.04075327 157.30671917 -0.04075327 157.30671917 -11 132 C-10.76023437 133.76150391 -10.76023437 133.76150391 -10.515625 135.55859375 C-7.88875357 156.75521058 -13.03213504 176.35412958 -25 194 C-26.42773762 195.61097667 -27.88520037 197.19623759 -29.375 198.75 C-33.24284947 202.83397208 -33.9006664 205.4373183 -34 211 C-35 212 -35 212 -38.2734375 212.21875 C-42.97611279 213.2046358 -43.92420208 214.610851 -46.625 218.5 C-47.37910156 219.57765625 -48.13320312 220.6553125 -48.91015625 221.765625 C-51.48154438 225.74526869 -53.87240417 229.7661912 -56 234 C-58.51153387 226.4653984 -53.99361519 216.12765521 -51 209 C-52.75244247 207.3516367 -52.75244247 207.3516367 -55 206 C-59.49100311 206.61328387 -62.46500267 209.4771147 -65.875 212.25 C-66.47441406 212.72824219 -67.07382813 213.20648438 -67.69140625 213.69921875 C-71.50259186 216.74982068 -75.25830366 219.86475597 -79 223 C-74.63002042 226.20575672 -74.63002042 226.20575672 -69.5625 226.625 C-65.87941921 224.28938779 -62.42233641 221.70050367 -59 219 C-58.34 219.33 -57.68 219.66 -57 220 C-57.69867188 220.55429687 -58.39734375 221.10859375 -59.1171875 221.6796875 C-60.02726563 222.40414062 -60.93734375 223.12859375 -61.875 223.875 C-62.77992188 224.59429687 -63.68484375 225.31359375 -64.6171875 226.0546875 C-67.00265176 227.93560474 -67.00265176 227.93560474 -69 230 C-61.44686081 237.0939818 -55.68673085 239.6785725 -45.2265625 239.4140625 C-38.92392092 238.60524893 -34.2382312 235.72004396 -30.125 230.9375 C-29.42375 229.968125 -28.7225 228.99875 -28 228 C-27.401875 227.21625 -26.80375 226.4325 -26.1875 225.625 C-25.5996875 224.820625 -25.5996875 224.820625 -25 224 C-25.33767479 229.40279665 -28.41096425 233.18761224 -32 237 C-39.5001643 242.75956013 -46.69674128 243.90104853 -56.02978516 243.28271484 C-63.3125791 242.23767452 -69.48996432 237.57511988 -75 233 C-77.80203311 234.20901429 -80.58993247 235.44048825 -83.375 236.6875 C-84.1690625 237.02716797 -84.963125 237.36683594 -85.78125 237.71679688 C-90.29373177 239.71058567 -90.29373177 239.71058567 -93.51171875 243.296875 C-96.244437 258.42520322 -92.32005591 269.72706794 -83.953125 282.33203125 C-78.7732069 289.40779937 -72.80685101 295.49658854 -66 301 C-66.66 301.33 -67.32 301.66 -68 302 C-70.55497045 300.91406215 -72.97573101 299.77063592 -75.4375 298.5 C-76.1603418 298.12979736 -76.88318359 297.75959473 -77.62792969 297.37817383 C-97.62183692 287.00116706 -115.66292844 272.01121468 -123 250 C-130.92 250.33 -138.84 250.66 -147 251 C-144.67895212 259.48075185 -142.26127698 265.99434241 -137 273 C-136.20042692 274.18219087 -135.40767725 275.36905596 -134.625 276.5625 C-133.820625 277.7690625 -133.820625 277.7690625 -133 279 C-137.83953773 277.50118794 -140.8856256 274.77172904 -144.5 271.375 C-145.36492065 270.56530762 -145.36492065 270.56530762 -146.24731445 269.73925781 C-152.78473174 263.47722794 -156.2471187 257.92375936 -158 249 C-158.95052246 248.84724609 -159.90104492 248.69449219 -160.88037109 248.53710938 C-171.46554833 246.74534276 -181.44531276 243.86726427 -191.625 240.5 C-212.20334608 233.67457861 -212.20334608 233.67457861 -233.6875 231.625 C-234.58525146 231.63007568 -235.48300293 231.63515137 -236.40795898 231.64038086 C-242.22365865 231.75054865 -247.44422592 232.41042829 -252.94140625 234.44140625 C-255.33532055 235.09098831 -256.68093547 234.79405611 -259 234 C-251.0716969 227.13841405 -241.83973912 225.64118642 -231.625 225.5625 C-230.89587402 225.55250977 -230.16674805 225.54251953 -229.41552734 225.53222656 C-214.43147101 225.75970085 -200.14377055 230.95946811 -186.0625 235.5625 C-183.32187239 236.45152873 -180.58049211 237.33814272 -177.83824158 238.22215271 C-176.14864864 238.76751623 -174.46006236 239.31601292 -172.77272034 239.86830139 C-167.88583255 241.45394713 -162.99796475 242.80780203 -158 244 C-158.05220703 242.98292969 -158.05220703 242.98292969 -158.10546875 241.9453125 C-158.41899123 231.16611117 -156.11407573 222.30477909 -149 214 C-142.18708188 207.49563795 -134.07204635 202.75719346 -126 198 C-126 201.96821534 -127.24272173 202.54124903 -130 205.3125 C-140.93622542 217.11120376 -145.65408057 230.30038537 -148 246 C-140.08 246 -132.16 246 -124 246 C-124.0825 243.4425 -124.165 240.885 -124.25 238.25 C-124.36864507 225.95085225 -120.78106567 215.64958916 -113 206 C-111.91533037 204.98667693 -110.81097825 203.99415444 -109.69140625 203.01953125 C-101.67793769 196.10505157 -101.67793769 196.10505157 -98.72875977 186.23364258 C-98.67346952 182.82167836 -98.86139853 179.40959623 -99 176 C-105.27 176.33 -111.54 176.66 -118 177 C-118.33 177.99 -118.66 178.98 -119 180 C-119.66 180 -120.32 180 -121 180 C-121.061875 180.53625 -121.12375 181.0725 -121.1875 181.625 C-122.52339574 185.52992602 -125.26339701 189.1316985 -129 191 C-130.45579587 191.09555417 -131.9160796 191.12984691 -133.375 191.125 C-134.14585937 191.12757813 -134.91671875 191.13015625 -135.7109375 191.1328125 C-137.9328189 191.00389788 -139.86618508 190.61383717 -142 190 C-142 189.34 -142 188.68 -142 188 C-144.88356118 187.06576211 -147.02661907 186.56399054 -149.86621094 187.8359375 C-151.93712089 189.14629664 -153.90751812 190.53888105 -155.875 192 C-156.58100342 192.50821289 -157.28700684 193.01642578 -158.0144043 193.54003906 C-160.0275024 195.00436397 -162.01738766 196.49475145 -164 198 C-165.34384766 199.01320313 -165.34384766 199.01320313 -166.71484375 200.046875 C-171.08544265 203.5954432 -173.24876412 206.6368401 -175 212 C-178.63 212 -182.26 212 -186 212 C-186 211.34 -186 210.68 -186 210 C-186.8971875 209.7834375 -186.8971875 209.7834375 -187.8125 209.5625 C-189.56150404 209.1127561 -191.28677023 208.57107659 -193 208 C-193 207.34 -193 206.68 -193 206 C-194.32 205.67 -195.64 205.34 -197 205 C-197 204.34 -197 203.68 -197 203 C-197.598125 202.896875 -198.19625 202.79375 -198.8125 202.6875 C-201.29983964 201.90576469 -202.24696028 200.8735926 -204 199 C-208.95422609 204.62019315 -208.95422609 204.62019315 -213.75 210.375 C-216 213 -216 213 -219 215 C-222.58988752 214.6221171 -225.69657291 213.41575447 -229 212 C-229 211.34 -229 210.68 -229 210 C-229.969375 209.71125 -230.93875 209.4225 -231.9375 209.125 C-235 208 -235 208 -236 206 C-236.5875448 201.74030018 -236.87791071 199.3559354 -234.5078125 195.6953125 C-232.75438372 193.6508582 -231.05201375 191.74560446 -229 190 C-228.34 190 -227.68 190 -227 190 C-226.34 188.68 -225.68 187.36 -225 186 C-224.34 186 -223.68 186 -223 186 C-223 184.68 -223 183.36 -223 182 C-223 181.34 -223 180.68 -223 180 C-224.3921875 179.8453125 -224.3921875 179.8453125 -225.8125 179.6875 C-229.22208546 178.95209922 -229.83564234 178.54076768 -232 176 C-233.299375 175.0409375 -233.299375 175.0409375 -234.625 174.0625 C-237.05211466 171.95474254 -237.66579964 171.11920338 -238 168 C-238.66 168 -239.32 168 -240 168 C-241.64802525 163.67179527 -242.23933471 160.13014416 -242.1953125 155.5078125 C-242.18886719 154.30898438 -242.18242187 153.11015625 -242.17578125 151.875 C-242.15902344 150.6375 -242.14226562 149.4 -242.125 148.125 C-242.11597656 146.86429688 -242.10695312 145.60359375 -242.09765625 144.3046875 C-242.07415808 141.2029296 -242.04130334 138.10156348 -242 135 C-242.67401855 135.02320313 -243.34803711 135.04640625 -244.04248047 135.0703125 C-244.93338379 135.08835937 -245.82428711 135.10640625 -246.7421875 135.125 C-247.62245605 135.14820313 -248.50272461 135.17140625 -249.40966797 135.1953125 C-253.41700073 134.89315734 -255.737984 133.26922852 -259 131 C-259 130.34 -259 129.68 -259 129 C-260.134375 128.71125 -261.26875 128.4225 -262.4375 128.125 C-264.2009375 127.568125 -264.2009375 127.568125 -266 127 C-267.25069801 124.49860398 -267.13302467 122.72607309 -267.125 119.9375 C-267.12757813 119.03902344 -267.13015625 118.14054687 -267.1328125 117.21484375 C-267 115 -267 115 -266 114 C-263.50507612 113.90497584 -261.03793986 113.87442434 -258.54272461 113.88647461 C-257.76229294 113.88632858 -256.98186127 113.88618256 -256.17778015 113.8860321 C-253.5859402 113.88673142 -250.99417122 113.89452464 -248.40234375 113.90234375 C-246.6101536 113.90420787 -244.81796294 113.9056318 -243.02577209 113.90663147 C-238.29929203 113.91045716 -233.57284248 113.92028788 -228.84637451 113.93133545 C-224.0271445 113.94154847 -219.20790958 113.94612885 -214.38867188 113.95117188 C-204.92576781 113.96191011 -195.46288644 113.97898714 -186 114 C-186 109.38 -186 104.76 -186 100 C-181.17970402 103.73572939 -181.17970402 103.73572939 -180.66796875 107.3359375 C-180.68563331 109.5758033 -180.78149098 111.77120799 -181 114 C-179.68 114 -178.36 114 -177 114 C-177 112.824375 -177 111.64875 -177 110.4375 C-176.37965711 105.57814737 -174.06370216 103.42835522 -170.32421875 100.4609375 C-167.38462003 98.61318973 -164.54049972 97.60659134 -161.17578125 96.80078125 C-158.86111764 96.08895994 -158.86111764 96.08895994 -156.875 94.2109375 C-146.41987932 86.17072241 -132.5200049 82.22535202 -119.51171875 82.171875 C-114.92172156 81.94722553 -111.23802065 80.62218097 -107.0390625 78.83984375 C-105 78 -105 78 -103 78 C-103 77.34 -103 76.68 -103 76 C-103.66386719 75.80664062 -104.32773438 75.61328125 -105.01171875 75.4140625 C-112.5735401 73.18415314 -112.5735401 73.18415314 -115.75 71.8125 C-118.71431682 70.74205226 -120.86020248 70.68626651 -124 71 C-126.19435387 72.75945109 -126.19435387 72.75945109 -128.0546875 75.1640625 C-133.31751285 80.7928824 -138.94102336 82.91495794 -146.125 85.375 C-148.39870797 86.19456253 -150.6721532 87.01485441 -152.9453125 87.8359375 C-154.53448486 88.3930542 -154.53448486 88.3930542 -156.15576172 88.96142578 C-158.46728175 89.80547782 -160.66525644 90.72358244 -162.890625 91.765625 C-166.33423744 93.13268722 -168.93285721 93.40143539 -172.625 93.375 C-173.71039063 93.38273437 -174.79578125 93.39046875 -175.9140625 93.3984375 C-179.41311081 92.94666164 -181.28191041 92.2470849 -184 90 C-184.63525391 87.38818359 -184.63525391 87.38818359 -185 85 C-181.25273211 83.3271456 -177.50164028 81.66302272 -173.75 80 C-172.62223145 79.49670166 -171.49446289 78.99340332 -170.33251953 78.47485352 C-164.98081607 76.10666629 -159.64340272 73.81442442 -154.1328125 71.83984375 C-142.11107353 67.80978357 -142.11107353 67.80978357 -134.31640625 58.19921875 C-131.11263255 52.84692026 -124.02124056 51.38225479 -118.4375 49.375 C-117.58736328 49.06304687 -116.73722656 48.75109375 -115.86132812 48.4296875 C-100.76696362 42.93652269 -100.76696362 42.93652269 -94.1015625 45.82177734 C-91.24492475 47.24807501 -88.43507977 48.72762474 -85.67285156 50.32983398 C-81.70101185 52.59452975 -81.70101185 52.59452975 -77.2734375 52.4453125 C-74.99537236 50.99705803 -72.93784648 49.49126204 -70.875 47.75 C-63.697913 42.07260282 -56.72955131 36.94567419 -47.2265625 37.609375 C-42.69722506 38.4039956 -39.93656971 39.74047522 -37.1875 43.4375 C-34.10120603 50.09739752 -33.80552498 58.19503138 -36.0625 65.1875 C-38.03809913 69.70984304 -41.07644109 73.98926908 -45 77 C-47.609375 77.35546875 -47.609375 77.35546875 -50 77 C-52.14982366 74.49187239 -53.02509187 72.95349096 -52.9375 69.625 C-52.11338263 67.31747137 -51.1967875 65.57782438 -49.9375 63.5 C-48.15548347 60.54288561 -47.48261527 58.51821616 -48 55 C-49.0763491 53.73745077 -49.0763491 53.73745077 -51.5625 53.5 C-56.74015784 54.25311387 -59.54043477 57.22038688 -63 61 C-65.00493483 64.03778004 -66.04482398 65.7551157 -65.9140625 69.38671875 C-64.61442487 73.1023494 -62.47188055 74.39860069 -59.3125 76.6875 C-58.27738281 77.45449219 -57.24226562 78.22148437 -56.17578125 79.01171875 C-51.14537563 82.16113629 -46.845889 83.28962882 -40.9375 83.3125 C-39.43509766 83.33763672 -39.43509766 83.33763672 -37.90234375 83.36328125 C-34.54442293 82.94297622 -32.68216638 82.04150632 -30 80 C-28.95550089 76.86650268 -29.06576355 76.01031744 -30 73 C-22.01967437 73.17734057 -15.69935548 77.58954656 -9.94921875 82.890625 C-0.72584556 92.95248666 5.30026904 105.59848215 6.76329041 119.17018127 C8.30307367 132.59020207 13.57068269 144.28509004 18.9375 156.5625 C19.8555179 158.70291838 20.77154479 160.84419183 21.68554688 162.98632812 C23.3639033 166.916364 25.055127 170.84035685 26.75756836 174.76000977 C33 189.25110983 33 189.25110983 33 192 C33.66 192 34.32 192 35 192 C35.16698395 191.47194763 35.3339679 190.94389526 35.50601196 190.39984131 C37.47834632 184.30952718 39.80369686 178.4193746 42.2734375 172.515625 C42.67905914 171.53817322 43.08468079 170.56072144 43.50259399 169.5536499 C44.7904519 166.45119981 46.08240809 163.35048038 47.375 160.25 C50.25076137 153.34253397 53.1139599 146.43026838 55.9564209 139.5090332 C56.88767009 137.27007006 57.84703462 135.04665498 58.82128906 132.82617188 C59.3056543 131.68212891 59.79001953 130.53808594 60.2890625 129.359375 C60.7010791 128.42061523 61.1130957 127.48185547 61.53759766 126.51464844 C62.28314424 123.86467933 62.28314424 123.86467933 60.60693359 121.16503906 C60.07664551 120.45057617 59.54635742 119.73611328 59 119 C57.35 119.33 55.7 119.66 54 120 C53.82744186 120.54305283 53.65488373 121.08610565 53.47709656 121.64561462 C51.64642994 127.2855807 49.53131392 132.73847935 47.20703125 138.19140625 C46.68069344 139.43747902 46.68069344 139.43747902 46.14372253 140.70872498 C45.03649293 143.32800851 43.92458538 145.94527497 42.8125 148.5625 C42.0550266 150.35208154 41.29786228 152.14179393 40.54101562 153.93164062 C38.69757641 158.2892798 36.8499429 162.64511809 35 167 C34.34 167 33.68 167 33 167 C30.84428504 162.33088492 29.40032669 158.54859753 31.01708984 153.50585938 C31.63385027 151.93918325 32.28351418 150.3851666 32.9609375 148.84375 C33.30371735 148.01540649 33.64649719 147.18706299 33.99966431 146.33361816 C34.72734708 144.59663382 35.4694422 142.86562404 36.22509766 141.140625 C37.37705312 138.49528524 38.46581437 135.82965549 39.55078125 133.15625 C40.26719892 131.46720383 40.98713202 129.7796435 41.7109375 128.09375 C42.03420013 127.29594116 42.35746277 126.49813232 42.69052124 125.67614746 C43.6479385 123.55008827 44.49452797 121.782026 46 120 C49.64306641 119.18164062 49.64306641 119.18164062 53 119 C55.23365276 116.32973992 55.23365276 116.32973992 54.82421875 114.0703125 C50.19540465 102.44343349 35.52234083 94.40000944 24.64404297 89.55297852 C23.02727886 88.85996484 21.40524674 88.17909388 19.77783203 87.51147461 C14.0873715 85.174743 14.0873715 85.174743 13 83 C13.68964844 83.09539062 14.37929688 83.19078125 15.08984375 83.2890625 C23.79288679 84.31575894 30.35779971 84.221646 37.5625 78.875 C38.72051965 77.93142843 39.87107587 76.97819584 41 76 C40.28457031 76.11859375 39.56914062 76.2371875 38.83203125 76.359375 C27.85165348 77.77986372 19.11071691 75.60304194 10.125 69.0625 C6.24716059 65.96022848 2.51348218 62.71315139 -1.21606445 59.43530273 C-23.578277 38.61075379 -23.578277 38.61075379 -52 31 C-62.33425947 32.70077938 -70.75247193 38.90400099 -79 45 C-77.10207274 36.77564853 -71.12645027 29.7649654 -64.0546875 25.3359375 C-59.02182745 23.13486571 -53.71939317 21.9701982 -48.35864258 20.82324219 C-40.62467185 19.13506713 -34.28510366 16.69586227 -28.5625 11.0625 C-20.12174195 3.24752229 -11.48903368 -0.45956135 0 0 Z M-65 91 C-65.67272347 94.41550296 -66.33711799 97.83257452 -67 101.25 C-67.28617188 102.70212891 -67.28617188 102.70212891 -67.578125 104.18359375 C-67.75859375 105.11816406 -67.9390625 106.05273438 -68.125 107.015625 C-68.29257813 107.87446289 -68.46015625 108.73330078 -68.6328125 109.61816406 C-69.10157445 112.25722106 -69.10157445 112.25722106 -69 116 C-66.69 116 -64.38 116 -62 116 C-62.1415547 112.95807987 -62.28809901 109.91653653 -62.4375 106.875 C-62.47681641 106.0190625 -62.51613281 105.163125 -62.55664062 104.28125 C-62.78156402 99.78278208 -63.13540883 95.43193793 -64 91 C-64.33 91 -64.66 91 -65 91 Z M-21 110 C-19.53447054 113.8329232 -17.85375622 117.29248755 -16 121 C-8.08 120.505 -8.08 120.505 0 120 C-6.68043746 113.31956254 -11.64852636 110.6679624 -21 110 Z M-13 127 C-12 129 -12 129 -12 129 Z M-219 135 C-219 145.56 -219 156.12 -219 167 C-217.35 167.66 -215.7 168.32 -214 169 C-214 169.66 -214 170.32 -214 171 C-213.34 171 -212.68 171 -212 171 C-212 170.34 -212 169.68 -212 169 C-211.2575 168.95875 -210.515 168.9175 -209.75 168.875 C-205.90481027 167.65153054 -205.03541948 165.36897018 -203 162 C-202.34 161.67 -201.68 161.34 -201 161 C-196.89889814 155.28124129 -196.47897782 150.97056766 -196.75 144.0625 C-196.8325 141.071875 -196.915 138.08125 -197 135 C-204.26 135 -211.52 135 -219 135 Z M-73 135 C-75.87778384 142.24355566 -76.37818059 148.31304523 -76.1875 156.0625 C-76.17396484 157.11888672 -76.16042969 158.17527344 -76.14648438 159.26367188 C-76.1114709 161.84299809 -76.06236675 164.42121494 -76 167 C-69.09002131 158.64068255 -63 146.21036415 -63 135 C-66.3 135 -69.6 135 -73 135 Z M-144 137 C-140 138 -140 138 -140 138 Z M-117 150 C-117 152.31 -117 154.62 -117 157 C-111.06 157 -105.12 157 -99 157 C-99 155.02 -99 153.04 -99 151 C-102.61867559 149.7937748 -105.92506251 149.89183082 -109.6875 149.9375 C-110.38939453 149.94201172 -111.09128906 149.94652344 -111.81445312 149.95117188 C-113.54300538 149.96293073 -115.27151365 149.98086546 -117 150 Z M-162.44921875 161.18359375 C-164.055112 163.06455184 -165.54528179 165.00031183 -167 167 C-167.74056641 165.700625 -167.74056641 165.700625 -168.49609375 164.375 C-169.13675781 163.26125 -169.77742188 162.1475 -170.4375 161 C-171.07558594 159.88625 -171.71367187 158.7725 -172.37109375 157.625 C-172.90863281 156.75875 -173.44617188 155.8925 -174 155 C-174.33 155 -174.66 155 -175 155 C-175 168.86 -175 182.72 -175 197 C-173.83589089 195.25383634 -172.68198055 193.50062352 -171.5546875 191.73046875 C-168.1252473 186.53845579 -164.8691515 182.65027135 -159.69921875 179.15625 C-157.85248589 177.97702143 -157.85248589 177.97702143 -156 176 C-156.66 176 -157.32 176 -158 176 C-159.32286246 171.03926578 -159.08893197 166.08888488 -159 161 C-158.34 160.67 -157.68 160.34 -157 160 C-157 159.34 -157 158.68 -157 158 C-148.585 157.505 -148.585 157.505 -140 157 C-140 155.68 -140 154.36 -140 153 C-148.50348342 153 -156.38899397 155.17711819 -162.44921875 161.18359375 Z M-65.3125 164.3125 C-66.18551758 164.91868164 -66.18551758 164.91868164 -67.07617188 165.53710938 C-68.72270167 166.68389966 -70.3615563 167.84168632 -72 169 C-73.18916016 169.7734375 -73.18916016 169.7734375 -74.40234375 170.5625 C-76.43369177 172.05464264 -76.43369177 172.05464264 -76.25 175.6875 C-76.1675 176.780625 -76.085 177.87375 -76 179 C-66.15326982 174.72181101 -66.15326982 174.72181101 -58 168 C-57.3250921 165.0379042 -57.57660197 163.06963575 -58 160 C-60.45779643 160 -63.2831917 162.89132318 -65.3125 164.3125 Z M-198 191 C-198.33 191.66 -198.66 192.32 -199 193 C-198.34 193 -197.68 193 -197 193 C-197.33 192.34 -197.66 191.68 -198 191 Z M-202 196 C-202.33 196.66 -202.66 197.32 -203 198 C-202.34 198 -201.68 198 -201 198 C-201.33 197.34 -201.66 196.68 -202 196 Z M-85 228 C-86.6877081 229.76401402 -86.6877081 229.76401402 -88.1875 232 C-88.71730469 232.7425 -89.24710938 233.485 -89.79296875 234.25 C-90.19128906 234.8275 -90.58960938 235.405 -91 236 C-90.67 236.66 -90.34 237.32 -90 238 C-85.71 236.02 -81.42 234.04 -77 232 C-77 231.34 -77 230.68 -77 230 C-79.90600261 228.74335022 -81.79604584 228 -85 228 Z " fill="#162E72" transform="translate(274,131)"/>
<path d="M0 0 C4.82029598 3.73572939 4.82029598 3.73572939 5.33203125 7.3359375 C5.31436669 9.5758033 5.21850902 11.77120799 5 14 C5.71027344 14.14179688 6.42054687 14.28359375 7.15234375 14.4296875 C9.02074603 14.80388055 10.88799354 15.18389653 12.75390625 15.5703125 C14.14416016 15.84488281 14.14416016 15.84488281 15.5625 16.125 C16.49191406 16.31320313 17.42132813 16.50140625 18.37890625 16.6953125 C20.94630869 16.99375868 22.57204816 16.81122156 25 16 C25 15.34 25 14.68 25 14 C28.30994713 12.34502644 31.99123 12.89915665 35.625 12.9375 C36.82769531 12.94426758 36.82769531 12.94426758 38.0546875 12.95117188 C40.03649006 12.96296832 42.01825433 12.98090395 44 13 C44 13.66 44 14.32 44 15 C44.928125 15 45.85625 15 46.8125 15 C53.35662474 15.93487496 59.54197898 20.94554741 63.59375 25.98046875 C65.26071133 28.77262897 66 30.72926867 66 34 C66.66 34 67.32 34 68 34 C68.84191782 36.9248633 69.11819313 39.50741656 69.09765625 42.546875 C69.09443359 43.39121094 69.09121094 44.23554688 69.08789062 45.10546875 C69.07951172 45.97816406 69.07113281 46.85085938 69.0625 47.75 C69.05798828 48.63816406 69.05347656 49.52632813 69.04882812 50.44140625 C69.03707422 52.62763316 69.01913966 54.81382528 69 57 C74.94 57 80.88 57 87 57 C87 49.74 87 42.48 87 35 C85.35 34.67 83.7 34.34 82 34 C79.1875 32.5625 79.1875 32.5625 77 31 C77 30.34 77 29.68 77 29 C76.0925 28.731875 75.185 28.46375 74.25 28.1875 C68.95121951 26.25140713 68.95121951 26.25140713 67 24 C66.77993142 21.31922617 66.92952791 18.69420204 67 16 C78.43129366 15.8606261 89.86238327 15.75418946 101.29435539 15.68912697 C106.60344453 15.65789087 111.9119499 15.61555944 117.22070312 15.54736328 C122.34953629 15.48189501 127.47781 15.44623595 132.60702896 15.43073654 C134.55819626 15.41969936 136.50933492 15.39814626 138.4602623 15.36561966 C157.20857282 15.0656356 157.20857282 15.0656356 166 22 C166.99 22.33 167.98 22.66 169 23 C171 26 171 26 171 35 C164.4 35 157.8 35 151 35 C151.03552979 37.29702881 151.07105957 39.59405762 151.10766602 41.96069336 C151.22404622 49.53229552 151.33488509 57.10397139 151.4429636 64.67569637 C151.50869221 69.26846194 151.57631352 73.86118368 151.64819336 78.45385742 C151.71743396 82.88227895 151.78179041 87.31074649 151.84269524 91.73929024 C151.86685523 93.43267986 151.89280441 95.12604488 151.92053413 96.81937981 C151.95893848 99.1828514 151.99110038 101.5463288 152.02172852 103.90991211 C152.04114754 104.97050339 152.04114754 104.97050339 152.06095886 106.05252075 C152.07907452 107.70170618 152.04514041 109.35133293 152 111 C151 112 151 112 147.7265625 112.21875 C143.02388721 113.2046358 142.07579792 114.610851 139.375 118.5 C138.62089844 119.57765625 137.86679688 120.6553125 137.08984375 121.765625 C134.51845562 125.74526869 132.12759583 129.7661912 130 134 C127.48846613 126.4653984 132.00638481 116.12765521 135 109 C133.24755753 107.3516367 133.24755753 107.3516367 131 106 C126.50899689 106.61328387 123.53499733 109.4771147 120.125 112.25 C119.52558594 112.72824219 118.92617187 113.20648438 118.30859375 113.69921875 C114.49740814 116.74982068 110.74169634 119.86475597 107 123 C111.36997958 126.20575672 111.36997958 126.20575672 116.4375 126.625 C120.12058079 124.28938779 123.57766359 121.70050367 127 119 C127.66 119.33 128.32 119.66 129 120 C128.30132812 120.55429687 127.60265625 121.10859375 126.8828125 121.6796875 C125.97273437 122.40414062 125.06265625 123.12859375 124.125 123.875 C123.22007812 124.59429687 122.31515625 125.31359375 121.3828125 126.0546875 C118.99734824 127.93560474 118.99734824 127.93560474 117 130 C124.55313919 137.0939818 130.31326915 139.6785725 140.7734375 139.4140625 C147.07607908 138.60524893 151.7617688 135.72004396 155.875 130.9375 C156.57625 129.968125 157.2775 128.99875 158 128 C158.598125 127.21625 159.19625 126.4325 159.8125 125.625 C160.204375 125.08875 160.59625 124.5525 161 124 C160.66232521 129.40279665 157.58903575 133.18761224 154 137 C146.4998357 142.75956013 139.30325872 143.90104853 129.97021484 143.28271484 C122.6874209 142.23767452 116.51003568 137.57511988 111 133 C108.19796689 134.20901429 105.41006753 135.44048825 102.625 136.6875 C101.8309375 137.02716797 101.036875 137.36683594 100.21875 137.71679688 C95.70626823 139.71058567 95.70626823 139.71058567 92.48828125 143.296875 C89.755563 158.42520322 93.67994409 169.72706794 102.046875 182.33203125 C107.2267931 189.40779937 113.19314899 195.49658854 120 201 C119.34 201.33 118.68 201.66 118 202 C115.44502955 200.91406215 113.02426899 199.77063592 110.5625 198.5 C109.8396582 198.12979736 109.11681641 197.75959473 108.37207031 197.37817383 C88.37816308 187.00116706 70.33707156 172.01121468 63 150 C55.08 150.33 47.16 150.66 39 151 C41.32104788 159.48075185 43.73872302 165.99434241 49 173 C49.79957308 174.18219087 50.59232275 175.36905596 51.375 176.5625 C52.179375 177.7690625 52.179375 177.7690625 53 179 C48.16046227 177.50118794 45.1143744 174.77172904 41.5 171.375 C40.63507935 170.56530762 40.63507935 170.56530762 39.75268555 169.73925781 C33.21526826 163.47722794 29.7528813 157.92375936 28 149 C27.04947754 148.84724609 26.09895508 148.69449219 25.11962891 148.53710938 C14.53445167 146.74534276 4.55468724 143.86726427 -5.625 140.5 C-26.20334608 133.67457861 -26.20334608 133.67457861 -47.6875 131.625 C-48.58525146 131.63007568 -49.48300293 131.63515137 -50.40795898 131.64038086 C-56.22365865 131.75054865 -61.44422592 132.41042829 -66.94140625 134.44140625 C-69.33532055 135.09098831 -70.68093547 134.79405611 -73 134 C-65.0716969 127.13841405 -55.83973912 125.64118642 -45.625 125.5625 C-44.89587402 125.55250977 -44.16674805 125.54251953 -43.41552734 125.53222656 C-28.43147101 125.75970085 -14.14377055 130.95946811 -0.0625 135.5625 C2.67812761 136.45152873 5.41950789 137.33814272 8.16175842 138.22215271 C9.85135136 138.76751623 11.53993764 139.31601292 13.22727966 139.86830139 C18.11416745 141.45394713 23.00203525 142.80780203 28 144 C27.94779297 142.98292969 27.94779297 142.98292969 27.89453125 141.9453125 C27.58100877 131.16611117 29.88592427 122.30477909 37 114 C43.81291812 107.49563795 51.92795365 102.75719346 60 98 C60 101.96821534 58.75727827 102.54124903 56 105.3125 C45.06377458 117.11120376 40.34591943 130.30038537 38 146 C45.92 146 53.84 146 62 146 C61.9175 143.4425 61.835 140.885 61.75 138.25 C61.63135493 125.95085225 65.21893433 115.64958916 73 106 C74.08466963 104.98667693 75.18902175 103.99415444 76.30859375 103.01953125 C84.32206231 96.10505157 84.32206231 96.10505157 87.27124023 86.23364258 C87.32653048 82.82167836 87.13860147 79.40959623 87 76 C80.73 76.33 74.46 76.66 68 77 C67.67 77.99 67.34 78.98 67 80 C66.34 80 65.68 80 65 80 C64.938125 80.53625 64.87625 81.0725 64.8125 81.625 C63.47660426 85.52992602 60.73660299 89.1316985 57 91 C55.54420413 91.09555417 54.0839204 91.12984691 52.625 91.125 C51.85414063 91.12757813 51.08328125 91.13015625 50.2890625 91.1328125 C48.0671811 91.00389788 46.13381492 90.61383717 44 90 C44 89.34 44 88.68 44 88 C41.11643882 87.06576211 38.97338093 86.56399054 36.13378906 87.8359375 C34.06287911 89.14629664 32.09248188 90.53888105 30.125 92 C29.41899658 92.50821289 28.71299316 93.01642578 27.9855957 93.54003906 C25.9724976 95.00436397 23.98261234 96.49475145 22 98 C21.10410156 98.67546875 20.20820312 99.3509375 19.28515625 100.046875 C14.91455735 103.5954432 12.75123588 106.6368401 11 112 C7.37 112 3.74 112 0 112 C0 111.34 0 110.68 0 110 C-0.8971875 109.7834375 -0.8971875 109.7834375 -1.8125 109.5625 C-3.56150404 109.1127561 -5.28677023 108.57107659 -7 108 C-7 107.34 -7 106.68 -7 106 C-8.98 105.505 -8.98 105.505 -11 105 C-11 104.34 -11 103.68 -11 103 C-11.598125 102.896875 -12.19625 102.79375 -12.8125 102.6875 C-15.29983964 101.90576469 -16.24696028 100.8735926 -18 99 C-22.95422609 104.62019315 -22.95422609 104.62019315 -27.75 110.375 C-30 113 -30 113 -33 115 C-36.58988752 114.6221171 -39.69657291 113.41575447 -43 112 C-43 111.34 -43 110.68 -43 110 C-43.969375 109.71125 -44.93875 109.4225 -45.9375 109.125 C-49 108 -49 108 -50 106 C-50.5875448 101.74030018 -50.87791071 99.3559354 -48.5078125 95.6953125 C-46.75438372 93.6508582 -45.05201375 91.74560446 -43 90 C-42.34 90 -41.68 90 -41 90 C-40.34 88.68 -39.68 87.36 -39 86 C-38.34 86 -37.68 86 -37 86 C-37 84.68 -37 83.36 -37 82 C-37 81.34 -37 80.68 -37 80 C-37.928125 79.896875 -38.85625 79.79375 -39.8125 79.6875 C-43.22208546 78.95209922 -43.83564234 78.54076768 -46 76 C-47.299375 75.0409375 -47.299375 75.0409375 -48.625 74.0625 C-51.05211466 71.95474254 -51.66579964 71.11920338 -52 68 C-52.66 68 -53.32 68 -54 68 C-55.64802525 63.67179527 -56.23933471 60.13014416 -56.1953125 55.5078125 C-56.18886719 54.30898438 -56.18242188 53.11015625 -56.17578125 51.875 C-56.15064453 50.01875 -56.15064453 50.01875 -56.125 48.125 C-56.11597656 46.86429687 -56.10695313 45.60359375 -56.09765625 44.3046875 C-56.07415808 41.2029296 -56.04130334 38.10156348 -56 35 C-56.67401855 35.02320313 -57.34803711 35.04640625 -58.04248047 35.0703125 C-59.37883545 35.09738281 -59.37883545 35.09738281 -60.7421875 35.125 C-61.62245605 35.14820313 -62.50272461 35.17140625 -63.40966797 35.1953125 C-67.41700073 34.89315734 -69.737984 33.26922852 -73 31 C-73 30.34 -73 29.68 -73 29 C-74.7015625 28.566875 -74.7015625 28.566875 -76.4375 28.125 C-77.613125 27.75375 -78.78875 27.3825 -80 27 C-81.25069801 24.49860398 -81.13302467 22.72607309 -81.125 19.9375 C-81.12757812 19.03902344 -81.13015625 18.14054687 -81.1328125 17.21484375 C-81 15 -81 15 -80 14 C-77.50507612 13.90497584 -75.03793986 13.87442434 -72.54272461 13.88647461 C-71.76229294 13.88632858 -70.98186127 13.88618256 -70.17778015 13.8860321 C-67.5859402 13.88673142 -64.99417122 13.89452464 -62.40234375 13.90234375 C-60.6101536 13.90420787 -58.81796294 13.9056318 -57.02577209 13.90663147 C-52.29929203 13.91045716 -47.57284248 13.92028788 -42.84637451 13.93133545 C-38.0271445 13.94154847 -33.20790958 13.94612885 -28.38867188 13.95117188 C-18.92576781 13.96191011 -9.46288644 13.97898714 0 14 C0 9.38 0 4.76 0 0 Z M-33 35 C-33 45.56 -33 56.12 -33 67 C-31.35 67.66 -29.7 68.32 -28 69 C-28 69.66 -28 70.32 -28 71 C-27.34 71 -26.68 71 -26 71 C-26 70.34 -26 69.68 -26 69 C-25.2575 68.95875 -24.515 68.9175 -23.75 68.875 C-19.90481027 67.65153054 -19.03541948 65.36897018 -17 62 C-16.34 61.67 -15.68 61.34 -15 61 C-10.89889814 55.28124129 -10.47897782 50.97056766 -10.75 44.0625 C-10.8325 41.071875 -10.915 38.08125 -11 35 C-18.26 35 -25.52 35 -33 35 Z M113 35 C110.12221616 42.24355566 109.62181941 48.31304523 109.8125 56.0625 C109.82603516 57.11888672 109.83957031 58.17527344 109.85351562 59.26367188 C109.8885291 61.84299809 109.93763325 64.42121494 110 67 C116.90997869 58.64068255 123 46.21036415 123 35 C119.7 35 116.4 35 113 35 Z M42 37 C46 38 46 38 46 38 Z M23.55078125 61.18359375 C21.944888 63.06455184 20.45471821 65.00031183 19 67 C18.25943359 65.700625 18.25943359 65.700625 17.50390625 64.375 C16.86324219 63.26125 16.22257812 62.1475 15.5625 61 C14.92441406 59.88625 14.28632812 58.7725 13.62890625 57.625 C13.09136719 56.75875 12.55382812 55.8925 12 55 C11.67 55 11.34 55 11 55 C11 68.86 11 82.72 11 97 C12.16410911 95.25383634 13.31801945 93.50062352 14.4453125 91.73046875 C17.8747527 86.53845579 21.1308485 82.65027135 26.30078125 79.15625 C28.14751411 77.97702143 28.14751411 77.97702143 30 76 C29.34 76 28.68 76 28 76 C26.67713754 71.03926578 26.91106803 66.08888488 27 61 C27.66 60.67 28.32 60.34 29 60 C29 59.34 29 58.68 29 58 C37.415 57.505 37.415 57.505 46 57 C46 55.68 46 54.36 46 53 C37.49651658 53 29.61100603 55.17711819 23.55078125 61.18359375 Z M120.6875 64.3125 C119.81448242 64.91868164 119.81448242 64.91868164 118.92382812 65.53710938 C117.27729833 66.68389966 115.6384437 67.84168632 114 69 C112.81083984 69.7734375 112.81083984 69.7734375 111.59765625 70.5625 C109.56630823 72.05464264 109.56630823 72.05464264 109.75 75.6875 C109.8325 76.780625 109.915 77.87375 110 79 C119.84673018 74.72181101 119.84673018 74.72181101 128 68 C128.6749079 65.0379042 128.42339803 63.06963575 128 60 C125.54220357 60 122.7168083 62.89132318 120.6875 64.3125 Z M-12 91 C-12.33 91.66 -12.66 92.32 -13 93 C-12.34 93 -11.68 93 -11 93 C-11.33 92.34 -11.66 91.68 -12 91 Z M-16 96 C-16.33 96.66 -16.66 97.32 -17 98 C-16.34 98 -15.68 98 -15 98 C-15.33 97.34 -15.66 96.68 -16 96 Z M101 128 C99.3122919 129.76401402 99.3122919 129.76401402 97.8125 132 C97.28269531 132.7425 96.75289062 133.485 96.20703125 134.25 C95.80871094 134.8275 95.41039062 135.405 95 136 C95.33 136.66 95.66 137.32 96 138 C100.29 136.02 104.58 134.04 109 132 C109 131.34 109 130.68 109 130 C106.09399739 128.74335022 104.20395416 128 101 128 Z " fill="#2D307C" transform="translate(88,231)"/>
<path d="M0 0 C4.02387355 2.84615446 5.599822 6.08430272 6.5625 10.8125 C7.43120095 21.5710271 5.38243706 28.14499481 -1.5234375 36.34375 C-3.4375 37.8125 -3.4375 37.8125 -6.046875 38.16796875 C-8.4375 37.8125 -8.4375 37.8125 -10.3125 35.625 C-11.65331575 32.27296062 -11.64281027 31.18736876 -10.4375 27.8125 C-9.76564519 26.63675408 -9.07686691 25.4705804 -8.375 24.3125 C-6.59298347 21.35538561 -5.92011527 19.33071616 -6.4375 15.8125 C-7.5138491 14.54995077 -7.5138491 14.54995077 -10 14.3125 C-15.17765784 15.06561387 -17.97793477 18.03288688 -21.4375 21.8125 C-23.44243483 24.85028004 -24.48232398 26.5676157 -24.3515625 30.19921875 C-23.05192487 33.9148494 -20.90938055 35.21110069 -17.75 37.5 C-16.71488281 38.26699219 -15.67976563 39.03398437 -14.61328125 39.82421875 C-9.58287563 42.97363629 -5.283389 44.10212882 0.625 44.125 C1.62660156 44.14175781 2.62820312 44.15851563 3.66015625 44.17578125 C7.01807707 43.75547622 8.88033362 42.85400632 11.5625 40.8125 C12.60699911 37.67900268 12.49673645 36.82281744 11.5625 33.8125 C19.54282563 33.98984057 25.86314452 38.40204656 31.61328125 43.703125 C42.29845049 55.35967326 49.59206932 72.00057594 49.6875 87.9375 C49.64625 88.88625 49.605 89.835 49.5625 90.8125 C45.5625 84.8125 45.5625 84.8125 45.5625 80.8125 C44.881875 80.750625 44.20125 80.68875 43.5 80.625 C40.5625 79.8125 40.5625 79.8125 37.5625 77.5 C32.58170403 73.68397814 26.53346969 72.41972342 20.5625 70.8125 C21.10519531 71.80507812 21.64789063 72.79765625 22.20703125 73.8203125 C32.06467686 92.32634412 34.1428659 110.37356947 28.5625 130.8125 C24.23712984 143.74107893 17.36595823 155.30356627 7.5625 164.8125 C7.2325 164.8125 6.9025 164.8125 6.5625 164.8125 C6.5625 142.0425 6.5625 119.2725 6.5625 95.8125 C13.1625 95.8125 19.7625 95.8125 26.5625 95.8125 C25.98155818 87.72045938 25.98155818 87.72045938 24.5625 83.8125 C23.5725 83.7196875 23.5725 83.7196875 22.5625 83.625 C19.58073571 82.81743884 18.71854254 82.16340083 16.40625 80.3125 C10.05148177 76.25420651 2.34222079 77.02636422 -4.9375 77 C-6.44274408 76.97682495 -7.94795602 76.9514534 -9.453125 76.92382812 C-13.11455844 76.86136468 -16.77553572 76.82872309 -20.4375 76.8125 C-20.49284912 76.24217041 -20.54819824 75.67184082 -20.60522461 75.08422852 C-20.85723743 72.51401247 -21.11602728 69.94452369 -21.375 67.375 C-21.46201172 66.47716797 -21.54902344 65.57933594 -21.63867188 64.65429688 C-21.72568359 63.80029297 -21.81269531 62.94628906 -21.90234375 62.06640625 C-22.02017212 60.88026733 -22.02017212 60.88026733 -22.14038086 59.67016602 C-22.25301499 57.80146652 -22.25301499 57.80146652 -23.4375 56.8125 C-24.7575 63.4125 -26.0775 70.0125 -27.4375 76.8125 C-43.9375 76.8125 -60.4375 76.8125 -77.4375 76.8125 C-77.32230172 84.2157727 -77.32230172 84.2157727 -74.87890625 86.43359375 C-74.25886719 86.70300781 -73.63882813 86.97242188 -73 87.25 C-71.13046043 88.06997349 -69.26343203 88.89953399 -67.4375 89.8125 C-67.4375 90.4725 -67.4375 91.1325 -67.4375 91.8125 C-66.715625 92.10125 -65.99375 92.39 -65.25 92.6875 C-62.64583333 93.72916667 -60.04166667 94.77083333 -57.4375 95.8125 C-57.4375 101.0925 -57.4375 106.3725 -57.4375 111.8125 C-63.3775 111.4825 -69.3175 111.1525 -75.4375 110.8125 C-75.7675 105.5325 -76.0975 100.2525 -76.4375 94.8125 C-77.0975 94.8125 -77.7575 94.8125 -78.4375 94.8125 C-78.870625 93.925625 -79.30375 93.03875 -79.75 92.125 C-80.306875 91.031875 -80.86375 89.93875 -81.4375 88.8125 C-81.80875 87.9875 -82.18 87.1625 -82.5625 86.3125 C-86.94051714 80.47514381 -93.42698682 77.30409855 -100.4375 75.8125 C-100.4375 75.1525 -100.4375 74.4925 -100.4375 73.8125 C-106.7075 74.1425 -112.9775 74.4725 -119.4375 74.8125 C-119.4375 75.4725 -119.4375 76.1325 -119.4375 76.8125 C-123.93705439 79.51223263 -127.48092313 78.48636088 -132.328125 77.41796875 C-134.4375 76.8125 -134.4375 76.8125 -135.4375 75.8125 C-135.80132655 71.67730073 -135.42962946 68.13533928 -132.90234375 64.765625 C-128.85489758 60.99981027 -124.98029396 58.89861702 -119.61328125 57.61328125 C-117.29861764 56.90145994 -117.29861764 56.90145994 -115.3125 55.0234375 C-104.85737932 46.98322241 -90.9575049 43.03785202 -77.94921875 42.984375 C-73.35922156 42.75972553 -69.67552065 41.43468097 -65.4765625 39.65234375 C-63.4375 38.8125 -63.4375 38.8125 -61.4375 38.8125 C-61.4375 38.1525 -61.4375 37.4925 -61.4375 36.8125 C-62.10136719 36.61914062 -62.76523438 36.42578125 -63.44921875 36.2265625 C-71.0110401 33.99665314 -71.0110401 33.99665314 -74.1875 32.625 C-77.15181682 31.55455226 -79.29770248 31.49876651 -82.4375 31.8125 C-84.63185387 33.57195109 -84.63185387 33.57195109 -86.4921875 35.9765625 C-91.75501285 41.6053824 -97.37852336 43.72745794 -104.5625 46.1875 C-106.83620797 47.00706253 -109.1096532 47.82735441 -111.3828125 48.6484375 C-112.44226074 49.01984863 -113.50170898 49.39125977 -114.59326172 49.77392578 C-116.90478175 50.61797782 -119.10275644 51.53608244 -121.328125 52.578125 C-124.77173744 53.94518722 -127.37035721 54.21393539 -131.0625 54.1875 C-132.14789063 54.19523437 -133.23328125 54.20296875 -134.3515625 54.2109375 C-137.85061081 53.75916164 -139.71941041 53.0595849 -142.4375 50.8125 C-143.07275391 48.20068359 -143.07275391 48.20068359 -143.4375 45.8125 C-139.69023211 44.1396456 -135.93914028 42.47552272 -132.1875 40.8125 C-131.05973145 40.30920166 -129.93196289 39.80590332 -128.77001953 39.28735352 C-123.41831607 36.91916629 -118.08090272 34.62692442 -112.5703125 32.65234375 C-100.54857353 28.62228357 -100.54857353 28.62228357 -92.75390625 19.01171875 C-89.55013255 13.65942026 -82.45874056 12.19475479 -76.875 10.1875 C-76.02486328 9.87554687 -75.17472656 9.56359375 -74.29882812 9.2421875 C-59.20446362 3.74902269 -59.20446362 3.74902269 -52.5390625 6.63427734 C-49.68242475 8.06057501 -46.87257977 9.54012474 -44.11035156 11.14233398 C-40.13851185 13.40702975 -40.13851185 13.40702975 -35.7109375 13.2578125 C-33.43287236 11.80955803 -31.37534648 10.30376204 -29.3125 8.5625 C-20.15818253 1.32102499 -11.73688312 -4.05455962 0 0 Z " fill="#03466E" transform="translate(232.4375,170.1875)"/>
<path d="M0 0 C-1.48228902 2.96457804 -3.7164164 3.42745611 -6.6875 4.8125 C-14.94585584 8.87318445 -19.4814604 12.94260416 -24 21 C-22.46279297 20.58427734 -22.46279297 20.58427734 -20.89453125 20.16015625 C-19.53387669 19.79418709 -18.17319834 19.42830635 -16.8125 19.0625 C-16.13896484 18.88009766 -15.46542969 18.69769531 -14.77148438 18.50976562 C8.1731149 12.35389753 32.87281792 15.21748389 53.7578125 26.48828125 C61.37722411 31.03604972 67.67567825 36.85328186 74 43 C74.77585449 43.74515869 74.77585449 43.74515869 75.56738281 44.50537109 C85.2910592 53.86205907 85.2910592 53.86205907 87 58 C83.68798029 56.74711689 80.74098921 55.27894221 77.6875 53.5 C68.29009996 48.78727401 57.33673518 47.78211458 47.33203125 50.98046875 C44.73692303 52.11501355 42.3937915 53.49059328 40 55 C41.09957031 55.61746094 42.19914062 56.23492187 43.33203125 56.87109375 C60.97331437 66.91127097 74.3507107 78.07331988 83 97 C83 97.66 83 98.32 83 99 C81.865625 99.56847656 80.73125 100.13695312 79.5625 100.72265625 C68.72426607 106.17352719 68.72426607 106.17352719 59.34765625 113.78515625 C58 115 58 115 56 115 C54.66033077 113.39299767 53.37919839 111.73706159 52.125 110.0625 C43.5922661 99.48136735 32.90389122 93.53235521 20.80175781 87.85253906 C18.17939163 86.61171214 15.58987745 85.30696602 13 84 C16 83 16 83 19.625 83.5625 C26.57007513 84.50377392 31.94986282 83.06220551 37.5625 78.875 C38.72051965 77.93142843 39.87107587 76.97819584 41 76 C39.92685547 76.17789063 39.92685547 76.17789063 38.83203125 76.359375 C27.85165348 77.77986372 19.11071691 75.60304194 10.125 69.0625 C6.24716059 65.96022848 2.51348218 62.71315139 -1.21606445 59.43530273 C-23.578277 38.61075379 -23.578277 38.61075379 -52 31 C-62.33425947 32.70077938 -70.75247193 38.90400099 -79 45 C-77.10207274 36.77564853 -71.12645027 29.7649654 -64.0546875 25.3359375 C-59.02182745 23.13486571 -53.71939317 21.9701982 -48.35864258 20.82324219 C-40.62467185 19.13506713 -34.28510366 16.69586227 -28.5625 11.0625 C-20.12174195 3.24752229 -11.48903368 -0.45956135 0 0 Z " fill="#03466E" transform="translate(274,131)"/>
<path d="M0 0 C0 8.58 0 17.16 0 26 C-0.66 26 -1.32 26 -2 26 C-3.4606285 28.64738916 -4 29.89448334 -4 33 C-2.68 33.66 -1.36 34.32 0 35 C-1.56848825 39.50410476 -5.08235292 41.6829758 -8.75 44.4375 C-9.97462134 45.37283049 -11.19858523 46.30902242 -12.421875 47.24609375 C-13.01677734 47.69968262 -13.61167969 48.15327148 -14.22460938 48.62060547 C-16.87484407 50.67971246 -19.43678118 52.83384422 -22 55 C-17.63002042 58.20575672 -17.63002042 58.20575672 -12.5625 58.625 C-8.87941921 56.28938779 -5.42233641 53.70050367 -2 51 C-1.34 51.33 -0.68 51.66 0 52 C-1.04800781 52.83144531 -1.04800781 52.83144531 -2.1171875 53.6796875 C-3.02726563 54.40414062 -3.93734375 55.12859375 -4.875 55.875 C-5.77992188 56.59429687 -6.68484375 57.31359375 -7.6171875 58.0546875 C-10.00265176 59.93560474 -10.00265176 59.93560474 -12 62 C-4.44686081 69.0939818 1.31326915 71.6785725 11.7734375 71.4140625 C18.07607908 70.60524893 22.7617688 67.72004396 26.875 62.9375 C27.57625 61.968125 28.2775 60.99875 29 60 C29.598125 59.21625 30.19625 58.4325 30.8125 57.625 C31.204375 57.08875 31.59625 56.5525 32 56 C31.66232521 61.40279665 28.58903575 65.18761224 25 69 C17.4998357 74.75956013 10.30325872 75.90104853 0.97021484 75.28271484 C-6.3125791 74.23767452 -12.48996432 69.57511988 -18 65 C-20.80203311 66.20901429 -23.58993247 67.44048825 -26.375 68.6875 C-27.1690625 69.02716797 -27.963125 69.36683594 -28.78125 69.71679688 C-33.29373177 71.71058567 -33.29373177 71.71058567 -36.51171875 75.296875 C-39.244437 90.42520322 -35.32005591 101.72706794 -26.953125 114.33203125 C-21.7732069 121.40779937 -15.80685101 127.49658854 -9 133 C-9.66 133.33 -10.32 133.66 -11 134 C-13.55497045 132.91406215 -15.97573101 131.77063592 -18.4375 130.5 C-19.1603418 130.12979736 -19.88318359 129.75959473 -20.62792969 129.37817383 C-40.62183692 119.00116706 -58.66292844 104.01121468 -66 82 C-77.88 82.495 -77.88 82.495 -90 83 C-87.67895212 91.48075185 -85.26127698 97.99434241 -80 105 C-79.20042692 106.18219087 -78.40767725 107.36905596 -77.625 108.5625 C-77.08875 109.366875 -76.5525 110.17125 -76 111 C-80.83953773 109.50118794 -83.8856256 106.77172904 -87.5 103.375 C-88.36492065 102.56530762 -88.36492065 102.56530762 -89.24731445 101.73925781 C-95.78473174 95.47722794 -99.2471187 89.92375936 -101 81 C-101.95052246 80.84724609 -102.90104492 80.69449219 -103.88037109 80.53710938 C-114.46554833 78.74534276 -124.44531276 75.86726427 -134.625 72.5 C-155.20334608 65.67457861 -155.20334608 65.67457861 -176.6875 63.625 C-177.58525146 63.63007568 -178.48300293 63.63515137 -179.40795898 63.64038086 C-185.22365865 63.75054865 -190.44422592 64.41042829 -195.94140625 66.44140625 C-198.33532055 67.09098831 -199.68093547 66.79405611 -202 66 C-194.0716969 59.13841405 -184.83973912 57.64118642 -174.625 57.5625 C-173.89587402 57.55250977 -173.16674805 57.54251953 -172.41552734 57.53222656 C-157.43147101 57.75970085 -143.14377055 62.95946811 -129.0625 67.5625 C-126.32187239 68.45152873 -123.58049211 69.33814272 -120.83824158 70.22215271 C-119.14864864 70.76751623 -117.46006236 71.31601292 -115.77272034 71.86830139 C-110.88583255 73.45394713 -105.99796475 74.80780203 -101 76 C-101.03480469 75.32195312 -101.06960937 74.64390625 -101.10546875 73.9453125 C-101.41899123 63.16611117 -99.11407573 54.30477909 -92 46 C-85.18708188 39.49563795 -77.07204635 34.75719346 -69 30 C-69 33.96821534 -70.24272173 34.54124903 -73 37.3125 C-83.93622542 49.11120376 -88.65408057 62.30038537 -91 78 C-83.08 78 -75.16 78 -67 78 C-67.0825 75.4425 -67.165 72.885 -67.25 70.25 C-67.38129161 56.63986963 -62.76990144 45.41670731 -53.546875 35.3125 C-51.40567548 33.15783382 -49.23709281 31.05447298 -47 29 C-46.401875 29.804375 -45.80375 30.60875 -45.1875 31.4375 C-43.19052724 34.22327984 -43.19052724 34.22327984 -40 35 C-40 35.66 -40 36.32 -40 37 C-39.29875 37.2475 -38.5975 37.495 -37.875 37.75 C-35 39 -35 39 -32.25 41.125 C-28.92790645 43.04159243 -27.94800038 43.21676365 -24.296875 43.1171875 C-23.49088867 43.10026855 -22.68490234 43.08334961 -21.85449219 43.06591797 C-21.24250977 43.04416504 -20.63052734 43.02241211 -20 43 C-20.04096802 41.60092407 -20.04096802 41.60092407 -20.08276367 40.17358398 C-20.15845808 36.6844837 -20.18418286 33.20218798 -20.17700195 29.71264648 C-20.18394384 28.20819392 -20.21031888 26.70369288 -20.25708008 25.19995117 C-20.40285386 20.25838378 -20.32502614 15.78745538 -19 11 C-15.74216962 7.60649563 -12.26590919 5.8737747 -8 4 C-6.79273637 3.21716731 -5.60016157 2.41016182 -4.4375 1.5625 C-2 0 -2 0 0 0 Z M-28 60 C-29.6877081 61.76401402 -29.6877081 61.76401402 -31.1875 64 C-31.71730469 64.7425 -32.24710938 65.485 -32.79296875 66.25 C-33.19128906 66.8275 -33.58960938 67.405 -34 68 C-33.67 68.66 -33.34 69.32 -33 70 C-28.71 68.02 -24.42 66.04 -20 64 C-20 63.34 -20 62.68 -20 62 C-22.90600261 60.74335022 -24.79604584 60 -28 60 Z " fill="#03466E" transform="translate(217,299)"/>
<path d="M0 0 C6.27 0 12.54 0 19 0 C21.68448519 6.43270006 24.36794058 12.8658285 27.05053711 19.29931641 C27.95879885 21.47716211 28.86731771 23.65490061 29.77612305 25.83251953 C32.8584454 33.21849395 35.93260923 40.60781247 39 48 C39.44289368 49.06569214 39.88578735 50.13138428 40.34210205 51.22937012 C41.61870974 54.30495425 42.89024225 57.38258447 44.16015625 60.4609375 C44.54860214 61.39539703 44.93704803 62.32985657 45.33726501 63.29263306 C45.86459984 64.57549698 45.86459984 64.57549698 46.40258789 65.88427734 C46.71241104 66.63397797 47.02223419 67.38367859 47.34144592 68.15609741 C48 70 48 70 48 72 C48.66 72 49.32 72 50 72 C50.16779968 71.47072403 50.33559937 70.94144806 50.50848389 70.39613342 C52.4695244 64.34890757 54.76329421 58.48939037 57.203125 52.62109375 C57.6040033 51.65075699 58.00488159 50.68042023 58.41790771 49.68067932 C59.26363624 47.63539226 60.11084943 45.59071855 60.95947266 43.54663086 C62.23567629 40.4720086 63.50690412 37.39536712 64.77734375 34.31835938 C68.47202608 25.38491472 72.18983573 16.46243298 76.046875 7.59765625 C76.47882172 6.60069984 76.47882172 6.60069984 76.91949463 5.58360291 C78.87744306 1.12255694 78.87744306 1.12255694 80 0 C82.33297433 -0.04092937 84.66705225 -0.04241723 87 0 C83.9056932 8.51245044 80.66587014 16.93559535 77.09765625 25.26171875 C76.7676059 26.03508575 76.43755554 26.80845276 76.09750366 27.60525513 C74.74074396 30.78057921 73.38142346 33.95457168 72.00366211 37.12084961 C70.98136647 39.47537835 69.97576259 41.83646349 68.97265625 44.19921875 C68.50098778 45.26640388 68.50098778 45.26640388 68.01979065 46.35514832 C66.3633328 50.29691192 65.53732084 52.90614799 67 57 C68.07389194 58.93749172 69.23066773 60.82990103 70.4375 62.6875 C73.39598205 67.31046747 76.12783195 72.0032148 78.73071289 76.83569336 C84.66807147 87.83676572 90.68264388 96.70013567 100.80078125 104.30859375 C102.70111023 105.77012563 104.35675508 107.26103208 106 109 C95.32276595 108.79175607 84.39993007 106.55647744 76.51196289 98.78369141 C71.12842876 92.4326337 69.86582438 83.74231259 68.375 75.8125 C66.69242776 66.77473066 66.69242776 66.77473066 64 58 C58.1755686 70.1223938 53.12177289 82.56944199 48 95 C45.36 95 42.72 95 40 95 C38.51035113 91.56903887 37.0207898 88.13803973 35.53125 84.70703125 C34.82961227 83.09093208 34.82961227 83.09093208 34.11380005 81.44218445 C31.52443971 75.47757263 28.93599492 69.51256568 26.34912109 63.546875 C25.29266047 61.1106696 24.23618259 58.6744717 23.1796875 56.23828125 C22.91638012 55.63107868 22.65307274 55.02387611 22.38178635 54.39827347 C19.30437026 47.30216864 16.22130817 40.20859837 13.12542725 33.12052917 C11.63213912 29.70077579 10.14232001 26.27951791 8.65307617 22.85800171 C7.97108206 21.29377591 7.28734228 19.73030999 6.60180664 18.16763306 C5.6597881 16.01990858 4.72375187 13.86967199 3.7890625 11.71875 C3.27037598 10.53216797 2.75168945 9.34558594 2.21728516 8.12304688 C1 5 1 5 0 0 Z " fill="#2F2F7C" transform="translate(259,251)"/>
<path d="M0 0 C9.62700948 8.86413987 12.84748297 28.06558044 13.4375 40.4375 C12.80818978 58.03196493 4.92560094 71.45481179 -7.44921875 83.56982422 C-26.07253471 100.74479036 -51.98444265 111.2555867 -76 118 C-72.76008207 114.67283114 -69.44188894 111.64493357 -65.8125 108.75 C-61.1793233 105.0011124 -56.71856064 101.11401933 -52.31640625 97.09765625 C-50.32475183 95.29408387 -48.29978143 93.54893904 -46.25 91.8125 C-20.42500571 69.07186738 -8.50558331 43.53538385 -2 10 C-1.58417695 7.93732975 -1.16771552 5.87478783 -0.75 3.8125 C-0.37875 1.9253125 -0.37875 1.9253125 0 0 Z " fill="#172E73" transform="translate(468,90)"/>
<path d="M0 0 C11.00574537 3.91663536 18.3931784 12.74798635 23.46875 22.953125 C26.20718992 29.16237831 28.17813588 35.25621088 29 42 C29.08378906 42.67933594 29.16757812 43.35867187 29.25390625 44.05859375 C30.47919516 64.96755606 17.29893057 83.52209236 5 99 C3.92711158 100.37140022 2.85549057 101.74379296 1.78515625 103.1171875 C-0.79551121 106.42301803 -3.39266514 109.71516868 -6 113 C-6.33 112.34 -6.66 111.68 -7 111 C-6.38256836 109.31445312 -6.38256836 109.31445312 -5.33984375 107.28125 C-4.96093994 106.52263672 -4.58203613 105.76402344 -4.19165039 104.98242188 C-3.77778076 104.16322266 -3.36391113 103.34402344 -2.9375 102.5 C1.59383063 93.23414006 5.17302536 83.91619663 8 74 C8.26683594 73.06542969 8.53367187 72.13085938 8.80859375 71.16796875 C13.6961622 49.76378967 8.41015778 27.41518896 2 7 C1.31860143 4.67054175 0.65757115 2.33634726 0 0 Z " fill="#172E73" transform="translate(421,67)"/>
<path d="M0 0 C2.59100054 1.1958464 4.67366812 2.49121633 7 4.1875 C9.69444642 6.24373062 9.69444642 6.24373062 11.8984375 5.7421875 C14.20661471 4.92703198 16.39654401 3.95010459 18.625 2.9375 C25.27528338 0.25782699 31.41157824 -0.07463952 38.25 2.1875 C44.45661155 4.87076237 48.44197507 8.60493768 51 15 C51 15.66 51 16.32 51 17 C47.72449952 16.41610644 46.11482644 15.43242774 43.75 13.125 C39.38831828 9.28190464 35.32291815 7.03007166 29.41015625 6.9765625 C25.12060085 7.31670346 21.78889535 7.88829915 18 10 C36.07927136 20.26611891 55.93486992 24.19514254 76.5 24.375 C78.11829712 24.39602783 78.11829712 24.39602783 79.76928711 24.41748047 C96.47230523 24.31997015 111.42059379 19.88391944 127.0625 14.5 C142.01185131 9.36519199 156.85029114 4.32184889 172.875 4.625 C173.67454102 4.63370117 174.47408203 4.64240234 175.29785156 4.65136719 C184.35748519 4.87647417 191.35862854 7.18261364 199 12 C199 12.66 199 13.32 199 14 C195.58016738 13.47387191 192.24269396 12.81741355 188.88671875 11.98828125 C168.02543293 7.35385203 148.04469384 13.95171835 128.41323853 20.45080566 C93.74236624 31.91899519 61.16452617 31.89393801 27 18 C24.38964657 16.66966603 21.81712127 15.30515537 19.27368164 13.85107422 C16.42663812 12.78538178 14.87349724 13.11646926 12 14 C9.90277467 15.30706429 9.90277467 15.30706429 8 16.9375 C0.48147364 23.10693594 -7.72814511 22.86952242 -17 22 C-24.67583712 19.69831941 -30.17018611 13.64583152 -34.25390625 6.94140625 C-35 5 -35 5 -34 2 C-33.48953125 2.99580078 -33.48953125 2.99580078 -32.96875 4.01171875 C-28.94846288 11.33591205 -24.96043041 15.3465232 -17 18 C-9.34712787 18.63861176 -2.28059073 18.88819561 4 14 C5.90163121 12.08904707 7.40598516 10.19177041 9 8 C8.3503125 7.50628906 7.700625 7.01257813 7.03125 6.50390625 C6.1959375 5.86324219 5.360625 5.22257812 4.5 4.5625 C3.6646875 3.92441406 2.829375 3.28632813 1.96875 2.62890625 C0.99421875 1.82259766 0.99421875 1.82259766 0 1 C0 0.67 0 0.34 0 0 Z " fill="#03466E" transform="translate(301,352)"/>
<path d="M0 0 C0.33 0 0.66 0 1 0 C1 31.02 1 62.04 1 94 C-6.59 94 -14.18 94 -22 94 C-21.13375 90.596875 -20.2675 87.19375 -19.375 83.6875 C-16.8692814 73.74267257 -14.58662671 63.76252586 -12.40087891 53.74316406 C-10.00992032 42.86670744 -7.38188758 32.05201317 -4.71533203 21.24047852 C-2.98091357 14.18857651 -1.32714196 7.14133817 0 0 Z " fill="#F2C037" transform="translate(378,252)"/>
<path d="M0 0 C7.26 0 14.52 0 22 0 C18.99350249 14.41412993 15.89938634 28.77097265 12.25585938 43.0390625 C10.35518866 50.50279294 8.58948218 57.99141389 6.875 65.5 C4.69836486 75.0314302 2.43179826 84.5302915 0 94 C-0.33 94 -0.66 94 -1 94 C-1.17670522 62.65521192 -0.65874414 31.33740003 0 0 Z " fill="#2F307B" transform="translate(357,251)"/>
<path d="M0 0 C1.46670113 5.22512279 2.22577402 9.5814234 2 15 C0.35 15 -1.3 15 -3 15 C-3 32.82 -3 50.64 -3 69 C-10.54038872 61.45961128 -12.51079897 52.87279662 -15.1875 42.75 C-15.44724609 41.79609375 -15.70699219 40.8421875 -15.97460938 39.859375 C-19.60912203 26.33560698 -19.60912203 26.33560698 -17.0625 20.625 C-16.68222656 19.75101563 -16.30195313 18.87703125 -15.91015625 17.9765625 C-15.60980469 17.32429688 -15.30945313 16.67203125 -15 16 C-19.25731568 15.59250325 -19.25731568 15.59250325 -22.875 17.5 C-23.24625 17.995 -23.6175 18.49 -24 19 C-25.5625 16.6875 -25.5625 16.6875 -27 14 C-25.6433354 9.9300062 -23.00907671 8.95863616 -19.4375 7 C-18.80215332 6.64550781 -18.16680664 6.29101562 -17.51220703 5.92578125 C-11.81600641 2.79948088 -6.64299273 0 0 0 Z " fill="#04456E" transform="translate(360,236)"/>
<path d="M0 0 C0.97582031 0.00902344 1.95164063 0.01804688 2.95703125 0.02734375 C4.06111328 0.04474609 4.06111328 0.04474609 5.1875 0.0625 C2.25177721 2.38775707 -0.74104017 4.15258583 -4.0625 5.875 C-10.70327021 9.44807129 -16.67403372 13.4958282 -21.8125 19.0625 C-19.1725 19.0625 -16.5325 19.0625 -13.8125 19.0625 C-14.53695312 19.63871094 -15.26140625 20.21492188 -16.0078125 20.80859375 C-24.2816447 27.45762046 -30.55544003 33.74949641 -35.8125 43.0625 C-39.15623475 42.50521087 -41.84562999 41.71076111 -44.8125 40.0625 C-45.73977341 30.78976595 -42.32483388 23.90010625 -36.91796875 16.453125 C-27.79686778 6.09669867 -13.76140035 -0.1658 0 0 Z " fill="#03466E" transform="translate(224.8125,129.9375)"/>
<path d="M0 0 C3.77130623 3.49821164 6.29111424 6.86704278 8.75 11.375 C9.44008442 12.616621 10.1315409 13.85748021 10.82421875 15.09765625 C11.17919434 15.73719238 11.53416992 16.37672852 11.89990234 17.03564453 C18.78252003 29.32537865 25.34683708 40.65615345 36.765625 49.2734375 C38.67548626 50.74923939 40.34586669 52.24919656 42 54 C31.32162566 53.79173383 20.40220185 51.55556484 12.51196289 43.78442383 C7.17688817 37.48795021 5.87252685 28.86201597 4.375 21 C3.96661686 18.93740668 3.55776982 16.87490516 3.1484375 14.8125 C2.95733398 13.83410156 2.76623047 12.85570312 2.56933594 11.84765625 C1.77670183 7.88312613 0.8952792 3.94251393 0 0 Z " fill="#03466E" transform="translate(323,306)"/>
<path d="M0 0 C7.6640625 -0.28125 7.6640625 -0.28125 10.6875 2.25 C11.450625 3.1575 12.21375 4.065 13 5 C14.3921875 6.0828125 14.3921875 6.0828125 15.8125 7.1875 C16.534375 7.785625 17.25625 8.38375 18 9 C18 9.66 18 10.32 18 11 C18.969375 11.2475 19.93875 11.495 20.9375 11.75 C25.49410178 13.03854722 29.71841403 14.99998479 34 17 C33.67 17.66 33.34 18.32 33 19 C30.80511502 19.48252163 28.59259777 19.8858471 26.375 20.25 C18.47307891 21.84163823 14.51487518 24.26824974 10.0625 30.875 C9.5365625 31.926875 9.5365625 31.926875 9 33 C4.16041241 28.87738835 0.38047957 24.11578899 -0.21923828 17.62841797 C-0.43375558 11.74805693 -0.27537075 5.87598809 0 0 Z " fill="#03456E" transform="translate(99,266)"/>
<path d="M0 0 C-0.16298584 0.57073242 -0.32597168 1.14146484 -0.49389648 1.72949219 C-1.00368519 4.01653267 -1.11435968 5.98964456 -1.09765625 8.328125 C-1.09282227 9.52695312 -1.09282227 9.52695312 -1.08789062 10.75 C-1.07951172 11.575 -1.07113281 12.4 -1.0625 13.25 C-1.05798828 14.09046875 -1.05347656 14.9309375 -1.04882812 15.796875 C-1.03707961 17.86461401 -1.01914522 19.93231624 -1 22 C-0.01 21.01 0.98 20.02 2 19 C2.37511719 19.44730469 2.75023437 19.89460938 3.13671875 20.35546875 C3.64847656 20.96003906 4.16023438 21.56460937 4.6875 22.1875 C5.18636719 22.77917969 5.68523437 23.37085938 6.19921875 23.98046875 C8.36743345 26.41206744 10.69632607 28.69632607 13 31 C-1.52 31 -16.04 31 -31 31 C-29.35 29.35 -27.7 27.7 -26 26 C-22.27738956 21.63874759 -19.41316653 17.65266611 -18 12 C-16.53159636 12.87922934 -15.0755826 13.77916989 -13.625 14.6875 C-12.81289063 15.18636719 -12.00078125 15.68523437 -11.1640625 16.19921875 C-8.66982279 18.27475035 -7.94969305 19.93697902 -7 23 C-5.8718269 19.63104171 -6.18515306 17.47206983 -7.0625 14.0625 C-7.73229995 10.95954919 -8.05624159 9.2587113 -7.375 6.125 C-3.41176471 0 -3.41176471 0 0 0 Z M-3 23 C-3 26 -3 26 -3 26 Z M-8 25 C-8.33 26.32 -8.66 27.64 -9 29 C-8.01 28.67 -7.02 28.34 -6 28 C-6.66 27.01 -7.32 26.02 -8 25 Z " fill="#302F7D" transform="translate(440,315)"/>
<path d="M0 0 C0.75741925 9.02140429 1.13534286 17.94706663 1 27 C0.34 27 -0.32 27 -1 27 C-2.55078125 25.20703125 -2.55078125 25.20703125 -4.3125 22.8125 C-9.11900705 16.0972655 -9.11900705 16.0972655 -16 12 C-18.73431717 11.77190557 -21.44924753 11.5835729 -24.1875 11.4375 C-26.765625 11.293125 -29.34375 11.14875 -32 11 C-32 16.94 -32 22.88 -32 29 C-34.93373054 27.53313473 -35.35335279 25.21107404 -36.39453125 22.24609375 C-38.12289489 15.83442218 -36.63968141 10.27129143 -35 4 C-34.35562988 3.98541748 -33.71125977 3.97083496 -33.04736328 3.95581055 C-30.07269801 3.88044526 -27.09904905 3.7840837 -24.125 3.6875 C-23.11179687 3.66494141 -22.09859375 3.64238281 -21.0546875 3.61914062 C-14.98320086 3.4050818 -9.712932 2.60198473 -3.95654297 0.63208008 C-2 0 -2 0 0 0 Z " fill="#302F7D" transform="translate(471,247)"/>
<path d="M0 0 C0.66 0.33 1.32 0.66 2 1 C1.69964844 1.61746094 1.39929688 2.23492187 1.08984375 2.87109375 C-1.64375846 8.9591502 -2.83929169 13.49350564 -1 20 C-0.36661936 21.49372268 0.30125331 22.97321467 1 24.4375 C4.77280947 32.36866152 4.79259695 40.72150148 2 49 C0.18649447 52.78575291 -1.82885854 56.40874085 -4 60 C-4.66 60 -5.32 60 -6 60 C-5.855625 59.443125 -5.71125 58.88625 -5.5625 58.3125 C-5.376875 57.549375 -5.19125 56.78625 -5 56 C-4.814375 55.2575 -4.62875 54.515 -4.4375 53.75 C-3.26652922 46.38961224 -4.04692207 41.73920787 -7.4375 35.25 C-11.20059554 27.78342232 -13.61705221 21.94099287 -10.875 13.5625 C-8.34122491 8.22950671 -4.92322561 3.28215041 0 0 Z " fill="#302F7D" transform="translate(434,249)"/>
<path d="M0 0 C0.33 0 0.66 0 1 0 C1 8.91 1 17.82 1 27 C0.34 26.67 -0.32 26.34 -1 26 C-1.12375 27.19625 -1.2475 28.3925 -1.375 29.625 C-1.63559536 32.14408847 -2.08297279 34.24005375 -2.9140625 36.64453125 C-4.61613471 41.90381193 -5.48803085 47.31666546 -6.5 52.74414062 C-6.665 53.60330078 -6.83 54.46246094 -7 55.34765625 C-7.144375 56.12117432 -7.28875 56.89469238 -7.4375 57.69165039 C-8 60 -8 60 -8.96826172 62.36376953 C-10.19019994 65.48598649 -10.84194415 68.54611569 -11.5078125 71.83203125 C-11.77207031 73.12431641 -12.03632813 74.41660156 -12.30859375 75.74804688 C-12.58083085 77.10284415 -12.85296499 78.45766213 -13.125 79.8125 C-13.40451891 81.18693627 -13.68446252 82.56128625 -13.96484375 83.93554688 C-14.64741066 87.28953946 -15.32563466 90.64435046 -16 94 C-17.98 94 -19.96 94 -22 94 C-21.84966309 93.41436279 -21.69932617 92.82872559 -21.54443359 92.2253418 C-18.27546153 79.44225263 -15.2131229 66.63435401 -12.40087891 53.74316406 C-10.00992032 42.86670744 -7.38188758 32.05201317 -4.71533203 21.24047852 C-2.98091357 14.18857651 -1.32714196 7.14133817 0 0 Z " fill="#BF8D26" transform="translate(378,252)"/>
<path d="M0 0 C3.46941546 0.45822468 6.67395049 0.89131683 10 2 C11.9906444 2.14986411 13.98535391 2.24828038 15.98046875 2.31640625 C17.14384766 2.35830078 18.30722656 2.40019531 19.50585938 2.44335938 C20.72080078 2.48267578 21.93574219 2.52199219 23.1875 2.5625 C24.41404297 2.60568359 25.64058594 2.64886719 26.90429688 2.69335938 C29.93608381 2.7995309 32.96795315 2.90157952 36 3 C34.79618552 5.49361571 33.54571278 7.68143083 32 10 C29.19315166 10.33457158 26.56317362 10.51285576 23.75 10.5625 C16.17185277 10.70387643 16.17185277 10.70387643 9 13 C7.80044058 14.80441536 7.80044058 14.80441536 7 17 C5.68271633 18.77792888 4.32562412 20.52681144 2.9375 22.25 C2.22464844 23.14203125 1.51179688 24.0340625 0.77734375 24.953125 C0.19082031 25.62859375 -0.39570313 26.3040625 -1 27 C-1.33 27 -1.66 27 -2 27 C-1.86160047 22.87471501 -1.7130259 18.74985892 -1.5625 14.625 C-1.52318359 13.449375 -1.48386719 12.27375 -1.44335938 11.0625 C-1.38051758 9.38027344 -1.38051758 9.38027344 -1.31640625 7.6640625 C-1.27974854 6.62717285 -1.24309082 5.5902832 -1.20532227 4.52197266 C-1 2 -1 2 0 0 Z " fill="#302F7D" transform="translate(391,248)"/>
<path d="M0 0 C2.72309544 1.27645099 4.78861242 2.91039472 7 4.9375 C7 5.5975 7 6.2575 7 6.9375 C7.66 6.9375 8.32 6.9375 9 6.9375 C7.89577753 10.25016742 7.46500925 10.57648387 4.68359375 12.390625 C4.00514404 12.84179688 3.32669434 13.29296875 2.62768555 13.7578125 C1.90492432 14.22960937 1.18216309 14.70140625 0.4375 15.1875 C-6.63177458 19.91546336 -13.00751674 24.8910304 -19 30.9375 C-19.68960714 20.51676995 -17.78401573 15.01547499 -11.0625 7.125 C-4.59161599 -0.143488 -4.59161599 -0.143488 0 0 Z " fill="#03466E" transform="translate(118,308.0625)"/>
<path d="M0 0 C2.64 0 5.28 0 8 0 C6.02880596 6.20348896 3.75865587 12.20511952 1.20703125 18.19140625 C0.68069344 19.43747902 0.68069344 19.43747902 0.14372253 20.70872498 C-0.96350707 23.32800851 -2.07541462 25.94527497 -3.1875 28.5625 C-3.9449734 30.35208154 -4.70213772 32.14179393 -5.45898438 33.93164062 C-7.30242359 38.2892798 -9.1500571 42.64511809 -11 47 C-11.66 47 -12.32 47 -13 47 C-15.19735499 42.29777281 -16.62932311 38.54648666 -14.87182617 33.48999023 C-14.20835382 31.91676421 -13.51378571 30.35638527 -12.79296875 28.80859375 C-12.43358719 27.97787857 -12.07420563 27.14716339 -11.70393372 26.29127502 C-10.55851543 23.66062074 -9.37408025 21.04980688 -8.1875 18.4375 C-7.40034401 16.64895075 -6.61580983 14.85924517 -5.83398438 13.06835938 C-3.91940055 8.69827601 -1.96964665 4.34552697 0 0 Z " fill="#302F7D" transform="translate(320,251)"/>
<path d="M0 0 C1.98 0 3.96 0 6 0 C6.14553599 3.89543877 6.23415059 7.79017651 6.3125 11.6875 C6.35439453 12.79029297 6.39628906 13.89308594 6.43945312 15.02929688 C6.5632261 23.22306755 6.5632261 23.22306755 3.796875 27.0390625 C2.87390625 27.68617188 1.9509375 28.33328125 1 29 C0.16339844 29.64324219 -0.67320312 30.28648437 -1.53515625 30.94921875 C-2.36917969 31.52285156 -3.20320312 32.09648437 -4.0625 32.6875 C-5.31740234 33.55955078 -5.31740234 33.55955078 -6.59765625 34.44921875 C-8.68712976 35.79803335 -10.75109188 36.94566201 -13 38 C-12.79283389 33.23517952 -11.79037758 30.38749642 -9.1875 26.375 C-4.10948267 18.38656027 -2.14806824 9.12929 0 0 Z " fill="#05456E" transform="translate(211,265)"/>
<path d="M0 0 C2.40644141 3.71374696 2.25818641 7.33848834 2.1953125 11.609375 C2.1924826 12.33618469 2.18965271 13.06299438 2.18673706 13.81182861 C2.17557523 16.12472251 2.15047851 18.43722388 2.125 20.75 C2.11496501 22.32160898 2.10584006 23.89322404 2.09765625 25.46484375 C2.07564904 29.31004622 2.04114715 33.15495664 2 37 C1.67 37 1.34 37 1 37 C0.505 29.575 0.505 29.575 0 22 C-2.26489653 28.22846546 -3.88793974 34.52051146 -5.37133789 40.97070312 C-6.75252389 46.97438042 -8.20008323 52.95924948 -9.6875 58.9375 C-10.00920166 60.24328003 -10.00920166 60.24328003 -10.33740234 61.57543945 C-10.53930176 62.38456787 -10.74120117 63.19369629 -10.94921875 64.02734375 C-11.12799561 64.74656006 -11.30677246 65.46577637 -11.4909668 66.20678711 C-12 68 -12 68 -13 70 C-8.05 70 -3.1 70 2 70 C2 70.33 2 70.66 2 71 C-3.61 71 -9.22 71 -15 71 C-14.40974133 63.71130019 -13.23051644 56.80210073 -11.5625 49.6875 C-11.34529297 48.72521484 -11.12808594 47.76292969 -10.90429688 46.77148438 C-9.2654343 39.65990354 -9.2654343 39.65990354 -7.97045898 36.44042969 C-7.09500437 34.23890911 -6.58704731 32.33211273 -6.21875 30.00390625 C-6.03892578 28.91819336 -6.03892578 28.91819336 -5.85546875 27.81054688 C-5.73816406 27.06869141 -5.62085938 26.32683594 -5.5 25.5625 C-4.69601687 20.50447427 -3.67500087 15.85750251 -2 11 C-1.58743605 9.04923465 -1.21056873 7.09047401 -0.875 5.125 C-0.70742188 4.15820312 -0.53984375 3.19140625 -0.3671875 2.1953125 C-0.24601562 1.47085937 -0.12484375 0.74640625 0 0 Z " fill="#DAA932" transform="translate(377,275)"/>
<path d="M0 0 C0.66 0 1.32 0 2 0 C4.14700401 4.80928899 5.70027607 8.70993798 4.77734375 13.98828125 C3.20699478 18.0522497 0.01782305 20.94908679 -3 24 C-6.88723499 28.2024162 -7.87891369 31.48799229 -9 37 C-11.51059752 33.23410372 -11.49206291 29.35713769 -11 25 C-9.95355513 20.00560401 -8.20865674 16.98633763 -4.375 13.625 C-1.21645104 10.75903242 -0.46238732 8.80608039 -0.0625 4.5625 C-0.0103958 3.04241671 0.02142007 1.52082518 0 0 Z " fill="#302F7D" transform="translate(440,289)"/>
<path d="M0 0 C3.97766921 0.56823846 6.82631355 1.49445807 10 4 C12.64786157 8.38266742 13.12109044 11.34639594 12.9375 16.4375 C12.74334183 22.06032066 14.11436508 25.22066717 17 30 C12.11074285 28.60306939 9.94558043 26.06012438 7 22 C4.90972106 18.21759049 4.99969205 15.27333975 5.12109375 11 C4.93087274 7.85828526 3.65988861 5.61751665 2 3 C1.34 2.67 0.68 2.34 0 2 C0 1.34 0 0.68 0 0 Z " fill="#302F7D" transform="translate(415,302)"/>
<path d="M0 0 C0.33 0 0.66 0 1 0 C1.55461242 9.05866952 -0.56247076 18.03160516 -3.0703125 26.69921875 C-3.80474334 29.30675681 -4.28229975 31.57228688 -4.5 34.25 C-5 38 -5 38 -7 41 C-7.37763012 42.86297524 -7.68197152 44.74139005 -7.9375 46.625 C-8.64601829 51.29222365 -9.73403587 55.46126325 -11.3359375 59.88671875 C-12.38540319 63.22648897 -12.68368868 66.52057545 -13 70 C-12.34 70.33 -11.68 70.66 -11 71 C-12.98 71 -14.96 71 -17 71 C-16.84966309 70.41436279 -16.69932617 69.82872559 -16.54443359 69.2253418 C-13.19983664 56.14652674 -10.07788016 43.03921572 -7.19433594 29.85107422 C-4.99606143 19.84819729 -2.55556423 9.91694614 0 0 Z " fill="#A07425" transform="translate(373,275)"/>
<path d="M0 0 C0.33 0 0.66 0 1 0 C1.02578125 0.69867188 1.0515625 1.39734375 1.078125 2.1171875 C1.13484375 3.02726562 1.1915625 3.93734375 1.25 4.875 C1.29640625 5.77992188 1.3428125 6.68484375 1.390625 7.6171875 C1.69226563 8.79667969 1.69226563 8.79667969 2 10 C3.31057885 10.71035576 4.64750714 11.37311462 6 12 C8.9533984 15.78964154 9.34371626 18.57393997 9.1875 23.3125 C9.16042969 24.38113281 9.13335937 25.44976562 9.10546875 26.55078125 C9.07066406 27.35902344 9.03585937 28.16726563 9 29 C8.34 28.67 7.68 28.34 7 28 C6.773125 27.154375 6.54625 26.30875 6.3125 25.4375 C4.74884306 21.34220802 2.51704041 18.90809325 -0.44140625 15.734375 C-2.26891607 13.70075505 -3.01727348 12.70024025 -2.94921875 9.94140625 C-2.81966797 8.76384766 -2.81966797 8.76384766 -2.6875 7.5625 C-2.60886719 6.78003906 -2.53023438 5.99757813 -2.44921875 5.19140625 C-2 3 -2 3 0 0 Z " fill="#302F7D" transform="translate(419,276)"/>
<path d="M0 0 C2.9719385 1.12451727 5.33440687 2.22293791 8 4 C7.40832031 4.76183594 6.81664062 5.52367187 6.20703125 6.30859375 C1.60801043 12.31808098 -2.58917515 18.21262996 -6 25 C-8.02937843 18.91186471 -5.26253232 11.11574939 -2.90625 5.30078125 C-2.00120654 3.50039123 -1.01099717 1.74309856 0 0 Z " fill="#04466E" transform="translate(224,340)"/>
<path d="M0 0 C0.2475 0.61875 0.495 1.2375 0.75 1.875 C2.2573062 4.43742053 3.27289968 4.90915987 6 6 C6.70125 6.350625 7.4025 6.70125 8.125 7.0625 C12.33736899 8.43609858 16.59765442 8.67516673 21 9 C21 10.32 21 11.64 21 13 C19.36890633 14.63109367 17.55812778 14.24872283 15.3125 14.3125 C10.39821164 14.24940643 7.73183617 13.3764232 4 10 C1.03211627 6.25109423 0 4.84230383 0 0 Z " fill="#03466E" transform="translate(268,346)"/>
<path d="M0 0 C0.33 0.99 0.66 1.98 1 3 C-1.710408 7.8995837 -4.96013207 11.48006604 -10 14 C-11.66234811 14.14601706 -13.33150507 14.22089834 -15 14.25 C-15.886875 14.27578125 -16.77375 14.3015625 -17.6875 14.328125 C-18.450625 14.21984375 -19.21375 14.1115625 -20 14 C-20.66 13.01 -21.32 12.02 -22 11 C-21.67 10.34 -21.34 9.68 -21 9 C-18.77734375 8.76171875 -18.77734375 8.76171875 -15.9375 8.6875 C-10.25288346 8.28039856 -6.31304503 6.74013429 -2 3 C-1.34 2.01 -0.68 1.02 0 0 Z " fill="#03466E" transform="translate(247,346)"/>
<path d="M0 0 C0.33 0 0.66 0 1 0 C1.09796875 0.67546875 1.1959375 1.3509375 1.296875 2.046875 C2.43008699 8.91119147 2.43008699 8.91119147 7 14 C7 14.66 7 15.32 7 16 C7.639375 16.2475 8.27875 16.495 8.9375 16.75 C11 18 11 18 11.75 20.125 C11.87375 21.053125 11.87375 21.053125 12 22 C7.47237458 21.82244606 5.51914275 21.49606973 2.1875 18.3125 C-1.89722623 12.12705743 -2.32489145 8.10623598 -1 1 C-0.67 0.67 -0.34 0.34 0 0 Z " fill="#03466E" transform="translate(264,361)"/>
<path d="M0 0 C2.48672073 3.7300811 2.51720454 6.68175256 2 11 C0.15675361 16.22253145 -2.46532548 19.00711482 -7 22 C-9.875 21.8125 -9.875 21.8125 -12 21 C-10.64004663 17.8381084 -9.22140627 16.14391454 -6.5 14.0625 C-1.64506413 10.04358006 -0.85674786 6.14002633 0 0 Z " fill="#03466E" transform="translate(251,361)"/>
<path d="M0 0 C1.23337535 3.8258104 0.40795182 5.75777562 -1.09619141 9.44921875 C-3.04955999 14.96212934 -4.01068025 20.78152776 -5.1875 26.5 C-5.46231379 27.8126209 -5.73769998 29.1251221 -6.01367188 30.4375 C-6.68140416 33.62387162 -7.34334072 36.81133135 -8 40 C-8.66 40 -9.32 40 -10 40 C-10.51131586 33.48072284 -9.04895563 28.4227118 -7.0078125 22.2421875 C-6.12378815 19.39823319 -5.50194694 16.67954486 -5 13.75 C-4.10519505 8.78789982 -2.23744142 4.49660557 0 0 Z " fill="#C89627" transform="translate(370,305)"/>
<path d="M0 0 C2.28804937 1.65883579 3.56463437 2.62283307 5 5 C5.44207004 8.70298665 5.29251428 12.28831877 5 16 C3.68 16 2.36 16 1 16 C-0.50156874 12.99686252 -0.09281204 10.20932478 -0.0625 6.875 C-0.05347656 5.59367188 -0.04445313 4.31234375 -0.03515625 2.9921875 C-0.02355469 2.00476563 -0.01195313 1.01734375 0 0 Z " fill="#04456E" transform="translate(88,231)"/>
<path d="M0 0 C0.33 2.97 0.66 5.94 1 9 C-0.99954746 9.04254356 -3.00041636 9.04080783 -5 9 C-6 8 -6 8 -6.0625 4.4375 C-6.041875 3.303125 -6.02125 2.16875 -6 1 C-4 0 -4 0 0 0 Z " fill="#0A4270" transform="translate(135,259)"/>
<path d="M0 0 C0.33 0 0.66 0 1 0 C1 4.95 1 9.9 1 15 C0.34 15 -0.32 15 -1 15 C-1.12375 16.134375 -1.2475 17.26875 -1.375 18.4375 C-1.58125 19.613125 -1.7875 20.78875 -2 22 C-2.66 22.33 -3.32 22.66 -4 23 C-3.32545897 15.1753241 -1.73123042 7.65443386 0 0 Z " fill="#956925" transform="translate(378,252)"/>
<path d="M0 0 C0 1.32 0 2.64 0 4 C-3.375 4.625 -3.375 4.625 -7 5 C-7.66 4.34 -8.32 3.68 -9 3 C-9 2.01 -9 1.02 -9 0 C-5.93109813 -1.53445094 -3.29905734 -0.54984289 0 0 Z " fill="#03466E" transform="translate(161,206)"/>
<path d="M0 0 C0.33 0 0.66 0 1 0 C1.37772225 6.67309309 0.45502517 12.74625275 -2 19 C-2.97100999 20.02817294 -3.96765141 21.03343061 -5 22 C-4.35482025 19.08318736 -3.7088818 16.16654627 -3.0625 13.25 C-2.88009766 12.425 -2.69769531 11.6 -2.50976562 10.75 C-2.33251953 9.95078125 -2.15527344 9.1515625 -1.97265625 8.328125 C-1.72914429 7.22839355 -1.72914429 7.22839355 -1.48071289 6.10644531 C-1.01446454 4.06338247 -0.51579351 2.03106238 0 0 Z " fill="#996C23" transform="translate(373,275)"/>
<path d="M0 0 C0.33 0 0.66 0 1 0 C0.67 5.28 0.34 10.56 0 16 C0.66 16.33 1.32 16.66 2 17 C0.02 17 -1.96 17 -4 17 C-2.68 11.39 -1.36 5.78 0 0 Z " fill="#9D732D" transform="translate(360,329)"/>
<path d="M0 0 C0.66 0 1.32 0 2 0 C1.44854729 5.23880078 0.57077907 9.97350697 -1 15 C-1.33 15 -1.66 15 -2 15 C-2.3690205 4.44191344 -2.3690205 4.44191344 0 0 Z " fill="#AD7D22" transform="translate(363,320)"/>
<path d="M0 0 C2.60018816 3.90028225 2.15085514 7.47434569 2 12 C1.01 11.67 0.02 11.34 -1 11 C-1.125 3.375 -1.125 3.375 0 0 Z " fill="#CF9F2F" transform="translate(377,275)"/>
<path d="M0 0 C0.99 0 1.98 0 3 0 C2.34 2.97 1.68 5.94 1 9 C0.67 9 0.34 9 0 9 C0 6.03 0 3.06 0 0 Z " fill="#04466F" transform="translate(198,266)"/>
<path d="M0 0 C1.98 0.99 1.98 0.99 4 2 C3.01 2 2.02 2 1 2 C0.67 1.34 0.34 0.68 0 0 Z " fill="#03466E" transform="translate(297,349)"/>
<path d="" fill="#03466E" transform="translate(0,0)"/>
<path d="" fill="#03466E" transform="translate(0,0)"/>
<path d="" fill="#03466E" transform="translate(0,0)"/>
<path d="" fill="#172E73" transform="translate(0,0)"/>
</svg>
